<?xml version="1.0" standalone="no"?>
<!DOCTYPE svg PUBLIC "-//W3C//DTD SVG 20010904//EN"
 "http://www.w3.org/TR/2001/REC-SVG-20010904/DTD/svg10.dtd">
<svg version="1.0" xmlns="http://www.w3.org/2000/svg"
 width="1195.000000pt" height="1162.000000pt" viewBox="0 0 1195.000000 1162.000000"
 preserveAspectRatio="xMidYMid meet">

<g transform="translate(0.000000,1162.000000) scale(0.100000,-0.100000)"
fill="#000000" stroke="none">
<path d="M5765 11578 c-16 -6 -42 -17 -58 -25 -15 -8 -35 -13 -45 -12 -9 1
-24 -1 -33 -5 -9 -4 -32 -8 -50 -9 -19 -1 -37 -6 -41 -12 -4 -5 -43 -10 -88
-12 -44 -1 -104 -9 -133 -17 -29 -8 -71 -18 -95 -21 -23 -4 -56 -18 -72 -31
-18 -16 -46 -27 -72 -29 -53 -5 -98 -12 -118 -17 -8 -3 -28 -9 -45 -13 -16 -5
-52 -28 -80 -52 -27 -23 -58 -43 -68 -43 -11 0 -28 -12 -39 -26 -12 -14 -27
-23 -35 -20 -18 7 -54 -11 -71 -36 -7 -10 -19 -18 -26 -18 -8 0 -19 -7 -26
-15 -7 -8 -21 -15 -31 -15 -11 0 -19 -5 -19 -11 0 -5 -15 -16 -34 -24 -19 -8
-37 -19 -41 -25 -6 -10 -109 -60 -123 -60 -4 0 -40 -16 -80 -36 -67 -33 -142
-94 -142 -116 0 -4 -7 -8 -15 -8 -8 0 -20 -10 -26 -22 -12 -23 -49 -63 -49
-54 0 4 -28 -19 -60 -51 -32 -30 -149 -156 -190 -203 -53 -61 -100 -145 -100
-179 0 -12 -10 -31 -22 -43 -13 -13 -21 -30 -19 -38 1 -8 0 -12 -4 -8 -13 13
-65 -32 -65 -55 0 -17 -2 -19 -9 -8 -7 11 -14 4 -30 -27 -12 -23 -21 -46 -21
-52 0 -5 -21 -36 -46 -69 -43 -56 -45 -61 -39 -105 6 -40 5 -45 -9 -40 -20 8
-22 -17 -3 -46 9 -16 9 -22 0 -28 -6 -4 -15 -20 -18 -35 -5 -18 -12 -26 -21
-23 -18 7 -48 -50 -46 -87 2 -16 -2 -26 -7 -23 -5 3 -11 -46 -14 -112 -4 -94
-9 -125 -26 -157 -11 -21 -21 -46 -21 -55 0 -9 -5 -21 -12 -28 -6 -6 -13 -23
-14 -38 -2 -15 -7 -30 -11 -33 -9 -6 -28 -79 -39 -150 -3 -24 -14 -51 -23 -60
-12 -12 -15 -24 -10 -37 4 -10 8 -36 8 -56 1 -26 6 -38 19 -41 13 -4 11 -5 -5
-6 -25 -1 -32 -21 -8 -21 22 0 19 -53 -4 -74 -13 -12 -19 -31 -19 -64 -1 -26
-3 -65 -5 -87 -2 -22 0 -51 4 -65 4 -14 12 -51 19 -83 6 -31 15 -55 20 -52 4
3 11 -7 15 -23 6 -25 8 -25 19 -9 7 9 16 17 18 17 3 0 4 -32 2 -71 -3 -45 0
-68 6 -64 10 6 11 -20 11 -280 -1 -77 3 -157 8 -179 6 -26 6 -44 -1 -56 -10
-16 -15 -15 -66 12 -64 35 -132 46 -132 22 0 -10 6 -14 14 -11 8 3 17 -1 20
-9 3 -9 10 -12 16 -9 5 3 10 2 10 -3 0 -5 29 -39 64 -76 35 -36 66 -73 70 -81
3 -8 11 -12 18 -10 7 3 18 -7 25 -23 7 -15 26 -43 42 -62 23 -27 33 -32 39
-22 7 10 18 11 43 5 29 -8 34 -14 37 -41 5 -49 19 -38 25 21 17 147 27 231 31
234 2 2 18 -49 35 -114 86 -319 141 -444 239 -542 151 -149 383 -216 793 -228
327 -9 497 14 654 87 115 54 276 174 295 220 5 14 18 39 28 55 10 17 42 84 72
149 58 131 80 171 125 233 26 36 37 43 78 48 59 9 87 -7 62 -35 -8 -9 -15 -22
-15 -28 0 -7 -6 -12 -12 -12 -7 0 -5 -5 5 -11 9 -6 14 -15 11 -21 -4 -6 -7
-24 -6 -39 0 -16 -5 -29 -11 -29 -7 0 -7 -4 2 -9 12 -8 12 -13 3 -24 -10 -12
-9 -16 8 -20 18 -5 19 -7 5 -34 -17 -33 -19 -53 -5 -53 6 0 10 7 10 15 0 19
14 19 30 0 10 -12 10 -15 -2 -15 -17 0 -48 -31 -48 -47 0 -6 9 -13 20 -16 15
-4 24 2 37 26 9 18 21 35 27 40 7 5 2 15 -16 31 -23 20 -25 26 -13 36 8 6 19
9 25 5 5 -3 10 -2 10 3 0 5 -9 12 -21 15 -12 3 -20 13 -19 24 4 33 0 43 -15
43 -8 0 -15 6 -15 13 0 24 13 28 32 10 16 -14 18 -15 18 0 0 9 -5 19 -11 23
-8 5 -6 10 5 16 19 11 36 3 36 -18 0 -8 5 -14 11 -14 7 0 9 10 4 28 -6 24 -5
25 9 12 9 -8 19 -31 22 -49 6 -30 5 -33 -10 -28 -10 4 -16 2 -15 -6 1 -6 -1
-20 -6 -30 -4 -9 -5 -26 -2 -37 3 -11 2 -20 -2 -20 -3 0 -5 -28 -4 -61 1 -53
-2 -64 -22 -83 -18 -16 -22 -29 -18 -47 4 -19 3 -22 -7 -12 -7 6 -19 9 -27 6
-11 -5 -11 -9 3 -24 9 -11 14 -19 9 -19 -4 0 4 -12 19 -26 14 -15 26 -35 26
-45 0 -11 6 -19 13 -19 6 -1 -1 -11 -17 -24 -25 -20 -28 -29 -22 -56 5 -26 3
-31 -9 -26 -10 3 -15 -1 -15 -14 0 -10 3 -21 8 -24 10 -6 6 -77 -5 -85 -21
-14 -22 -42 -3 -61 11 -11 17 -20 14 -20 -4 0 0 -7 7 -16 11 -14 10 -19 -10
-35 -19 -16 -21 -22 -11 -34 7 -8 16 -12 22 -9 10 7 6 -35 -5 -53 -5 -8 -4
-13 2 -13 15 0 14 -63 -1 -79 -11 -11 -9 -13 10 -8 21 5 23 3 17 -24 -6 -25
-3 -30 22 -40 54 -20 93 -58 93 -90 0 -22 5 -29 19 -29 24 0 30 -8 36 -52 9
-58 7 -122 -5 -173 -13 -50 -20 -102 -22 -162 -1 -21 -6 -33 -15 -33 -8 0 -11
-4 -8 -10 9 -14 52 -12 58 3 3 9 11 9 33 -3 28 -15 34 -37 8 -32 -8 2 -14 -4
-14 -13 0 -11 -6 -14 -25 -9 -18 5 -25 2 -25 -9 0 -8 4 -17 8 -19 4 -1 18 -18
31 -36 17 -25 21 -36 12 -45 -8 -8 -11 -7 -11 6 0 9 -4 17 -10 17 -5 0 -10 -9
-10 -21 0 -11 -4 -18 -9 -15 -5 4 -7 -3 -4 -14 3 -12 -1 -22 -11 -26 -16 -6
-16 -7 1 -104 l6 -35 -26 24 c-22 20 -27 22 -32 8 -4 -8 1 -26 9 -39 9 -14 13
-28 9 -31 -3 -4 -2 -7 4 -7 6 0 8 -12 5 -27 -4 -27 -4 -27 11 -8 14 19 16 19
22 3 4 -10 12 -15 17 -12 6 4 8 -2 3 -16 -6 -19 -4 -21 14 -15 15 4 21 2 21
-8 0 -9 -6 -17 -12 -20 -18 -6 -7 -15 22 -19 14 -2 30 -7 37 -11 6 -4 14 -3
18 3 3 5 15 10 27 10 15 0 18 -4 14 -17 -6 -15 -5 -15 11 -1 31 26 47 33 41
17 -8 -20 12 -44 42 -54 24 -7 24 -7 8 12 -10 11 -18 27 -18 37 0 16 1 15 18
-1 11 -10 22 -26 25 -35 4 -10 11 -18 16 -18 15 0 32 36 25 53 -3 8 0 18 6 22
11 7 24 -5 33 -30 2 -6 9 -5 18 2 9 7 20 8 29 3 11 -7 12 -11 0 -24 -11 -14
-10 -16 5 -10 10 4 21 1 26 -7 6 -11 11 -11 20 -2 6 6 18 9 25 6 10 -4 14 4
14 26 0 17 2 31 5 31 16 0 46 -41 43 -57 -4 -18 37 -63 56 -63 6 0 21 -11 35
-24 43 -40 67 -42 86 -7 8 17 11 31 6 31 -5 0 -11 11 -13 25 -6 28 16 36 26
10 5 -14 9 -14 37 0 29 15 32 15 52 -2 12 -10 24 -19 26 -20 1 -1 -4 -12 -13
-25 -12 -17 -16 -18 -16 -6 0 8 -9 18 -20 21 -15 4 -20 0 -20 -13 0 -33 11
-48 30 -43 12 3 23 -3 32 -16 7 -12 18 -21 25 -21 6 0 13 -6 16 -12 2 -7 7
-11 10 -8 4 3 0 17 -7 31 -7 14 -15 39 -19 56 -5 25 -2 32 13 36 12 3 20 14
20 26 0 32 19 25 63 -21 34 -36 41 -40 51 -26 10 14 14 14 33 -2 12 -10 20
-20 17 -23 -3 -2 7 -7 21 -9 27 -6 34 9 13 30 -9 9 -9 15 -1 23 7 7 14 2 21
-20 6 -17 16 -31 22 -31 6 0 9 4 6 9 -3 5 10 12 30 16 25 4 34 10 30 21 -3 8
1 14 9 14 9 0 12 -6 9 -15 -5 -11 1 -15 20 -15 14 0 26 -5 26 -12 0 -6 3 -8 6
-5 12 11 43 -13 38 -28 -4 -11 1 -15 16 -15 18 0 20 3 11 13 -6 8 -8 17 -4 20
3 4 0 7 -7 7 -7 0 -10 3 -6 7 4 4 15 -3 25 -16 15 -19 16 -33 9 -84 -5 -41 -5
-63 2 -65 5 -2 10 -12 10 -23 0 -10 5 -19 10 -19 6 0 10 15 10 34 0 40 14 54
28 29 13 -23 20 31 26 191 6 139 17 163 60 128 21 -16 23 -21 11 -26 -16 -6
-21 -36 -5 -36 5 0 7 -6 4 -14 -3 -8 3 -19 15 -26 25 -13 28 -50 5 -50 -12 0
-14 -7 -9 -28 8 -36 -24 -110 -45 -105 -13 4 -13 3 -1 -5 12 -9 13 -18 2 -59
-7 -26 -15 -60 -18 -76 -3 -15 -9 -27 -14 -27 -4 0 -11 -22 -15 -50 -4 -27
-10 -47 -15 -45 -4 3 -14 -4 -22 -16 -9 -13 -17 -16 -22 -10 -12 21 -25 11
-25 -20 0 -36 -32 -85 -60 -94 -11 -4 -20 -11 -20 -16 0 -15 -44 -54 -57 -51
-8 2 -13 -8 -13 -24 0 -17 -13 -40 -40 -66 -22 -22 -40 -49 -40 -60 0 -19 -4
-20 -52 -14 l-53 6 25 -20 c27 -21 27 -21 -8 -25 -44 -4 -69 -25 -64 -51 3
-17 0 -24 -12 -24 -22 0 -21 -20 2 -21 12 0 10 -3 -7 -10 -13 -5 -32 -7 -41
-4 -11 3 -20 -1 -24 -10 -7 -19 -20 -19 -40 0 -13 14 -17 12 -33 -11 -10 -14
-26 -34 -35 -45 -10 -10 -15 -25 -12 -33 4 -11 -3 -13 -35 -9 -34 5 -41 3 -41
-11 0 -9 -5 -16 -11 -16 -5 0 -7 -5 -3 -12 4 -7 3 -8 -4 -4 -7 4 -20 2 -29 -3
-17 -10 -17 -10 2 -11 15 0 16 -3 7 -12 -7 -7 -12 -19 -12 -28 0 -19 -25 -35
-68 -45 -18 -3 -32 -13 -32 -21 0 -8 -4 -22 -9 -32 -5 -9 -12 -25 -15 -34 -3
-12 -11 -15 -22 -11 -14 5 -16 3 -11 -11 4 -10 7 -22 7 -27 0 -5 7 -9 16 -9
14 0 14 -2 0 -15 -8 -8 -20 -15 -26 -15 -7 0 -10 -7 -6 -15 5 -15 -8 -20 -46
-17 -9 1 -19 -6 -22 -14 -4 -12 -2 -15 9 -11 24 10 29 -13 6 -34 -25 -23 -27
-31 -6 -23 19 8 20 -16 0 -42 -14 -19 -15 -19 -21 3 -5 17 -9 19 -18 10 -10
-9 -7 -16 15 -34 15 -13 31 -23 36 -23 5 0 10 -16 11 -36 2 -20 8 -41 13 -47
6 -7 21 -32 33 -57 11 -25 31 -49 44 -55 12 -5 22 -16 22 -24 0 -11 -11 -12
-49 -7 -47 6 -49 6 -54 -21 -5 -26 8 -47 24 -37 4 2 12 -2 18 -10 9 -11 3 -14
-31 -19 -47 -6 -60 -1 -38 14 12 9 12 10 -3 5 -10 -3 -28 -6 -38 -6 -16 0 -19
-4 -14 -22 4 -13 14 -28 22 -35 16 -12 10 -33 -9 -33 -6 0 -20 7 -30 17 -17
15 -18 15 -18 -4 0 -28 -57 -38 -84 -14 -17 14 -19 14 -14 1 3 -9 -3 -26 -13
-39 -16 -20 -23 -22 -42 -14 -15 7 -33 7 -57 -2 -19 -6 -65 -11 -102 -10 -38
2 -68 -1 -68 -5 0 -12 58 -18 125 -14 77 6 156 3 188 -6 23 -7 57 -2 71 9 13
11 25 10 69 -5 47 -17 52 -22 52 -49 0 -22 -6 -31 -25 -37 -16 -5 -7 -6 25 -3
59 6 79 21 44 34 -23 8 -22 9 13 16 28 5 38 13 43 33 4 15 12 30 18 34 8 4 7
11 -3 22 -16 20 -6 33 14 17 12 -10 16 -8 21 9 5 17 12 20 31 16 13 -4 24 -2
24 3 0 5 -10 12 -22 15 -13 3 -2 3 25 2 26 -2 47 0 47 5 0 13 42 49 58 49 7 0
28 16 46 35 28 29 30 35 15 35 -11 0 -19 5 -19 10 0 15 71 8 77 -8 4 -8 12
-10 22 -6 9 4 30 7 46 8 23 1 31 6 33 24 2 12 -1 22 -7 22 -17 0 -13 27 4 34
8 3 15 1 15 -4 0 -6 4 -10 9 -10 5 0 7 8 4 19 -5 19 24 87 33 78 3 -3 7 -32 9
-65 1 -33 6 -66 11 -73 12 -20 16 -79 5 -79 -5 0 -11 9 -14 20 -3 11 -12 20
-20 20 -21 0 -29 -54 -15 -100 11 -33 16 -38 34 -34 27 7 40 -12 24 -31 -7 -8
-10 -24 -7 -36 3 -12 0 -22 -8 -25 -19 -8 -26 -44 -9 -51 8 -3 14 -12 14 -20
0 -8 -4 -12 -9 -8 -5 3 -12 1 -16 -5 -3 -5 -1 -10 6 -10 8 0 10 -15 7 -50 -3
-28 -2 -52 2 -55 3 -2 6 -41 5 -87 -1 -46 2 -91 7 -101 7 -14 5 -24 -8 -38
-15 -17 -15 -19 0 -25 24 -9 20 -29 -9 -44 -30 -16 -33 -34 -4 -25 20 7 20 7
3 -21 -10 -15 -17 -39 -15 -52 1 -13 -1 -22 -6 -19 -4 3 -16 -6 -26 -19 -10
-13 -13 -24 -7 -24 6 0 8 -10 4 -25 -4 -18 -1 -27 10 -31 9 -3 16 -11 16 -16
0 -6 8 -17 18 -24 16 -13 16 -13 0 -14 -22 0 -24 -16 -4 -23 11 -4 13 -16 9
-41 -4 -29 -2 -36 10 -36 14 0 16 -11 12 -70 -2 -39 1 -70 6 -70 5 0 9 -5 9
-11 0 -6 -7 -9 -15 -5 -10 4 -15 -1 -15 -15 0 -13 -5 -19 -13 -16 -9 3 -11 -6
-9 -35 3 -24 -1 -45 -10 -56 -23 -27 -30 -54 -16 -64 10 -6 8 -8 -4 -8 -10 0
-18 4 -18 9 0 5 -9 7 -20 4 -11 -3 -20 -9 -20 -13 0 -4 -12 -5 -27 -2 -26 5
-27 4 -13 -13 14 -17 13 -18 -12 -13 -23 4 -28 2 -28 -13 0 -14 -7 -19 -29
-19 -18 0 -31 -6 -35 -17 -6 -14 -9 -15 -15 -4 -6 9 -18 11 -40 6 -17 -4 -29
-11 -25 -16 3 -6 -4 -7 -19 -4 -15 4 -29 1 -36 -7 -6 -7 -20 -24 -32 -38 -14
-17 -19 -19 -15 -7 9 30 -12 19 -22 -12 -6 -16 -23 -38 -39 -48 -37 -23 -41
-30 -35 -58 3 -16 -2 -27 -16 -34 -27 -14 -34 -48 -14 -62 12 -7 14 -12 5 -15
-18 -8 -16 -31 2 -41 18 -11 6 -61 -22 -91 -10 -10 -26 -29 -35 -40 -16 -20
-16 -22 -2 -22 11 0 14 -5 10 -16 -4 -12 1 -10 23 5 16 12 32 21 35 21 3 0 15
9 26 20 25 25 50 26 50 1 0 -11 5 -23 10 -26 6 -4 9 -1 8 7 -3 15 41 23 78 14
26 -7 53 -51 47 -79 -3 -10 1 -17 11 -17 8 0 16 9 18 19 3 18 5 18 28 6 25
-14 25 -15 3 -21 -27 -7 -38 -45 -18 -60 8 -6 15 -17 15 -24 0 -7 6 -10 14 -7
7 3 18 1 24 -5 7 -7 17 -5 33 6 13 9 39 16 59 16 26 0 31 -3 20 -10 -10 -6
-11 -10 -2 -10 6 0 12 -6 12 -13 0 -7 9 -18 19 -24 15 -10 22 -9 31 2 18 22
44 19 35 -2 -4 -10 -8 -23 -8 -30 0 -7 -4 -10 -9 -7 -4 3 -11 -3 -14 -13 -16
-49 -16 -49 -25 -25 -10 27 -33 19 -24 -9 5 -16 1 -19 -27 -20 l-33 -1 30 -8
c30 -8 30 -8 3 -9 -15 0 -34 -8 -43 -17 -11 -12 -19 -13 -28 -5 -18 14 -57 2
-58 -18 0 -12 -2 -11 -9 4 -5 11 -9 15 -9 9 -1 -18 -30 -25 -52 -14 -15 8 -19
7 -19 -5 0 -8 7 -15 15 -15 13 0 13 -2 3 -14 -7 -8 -15 -11 -18 -7 -7 9 -103
7 -117 -2 -18 -12 -36 2 -30 23 2 10 1 24 -4 31 -6 10 -9 11 -9 2 0 -21 -23
-15 -49 12 -15 16 -27 22 -35 16 -17 -13 -76 -19 -76 -7 0 5 -7 1 -15 -10 -14
-19 -15 -19 -21 4 -4 13 -14 22 -25 22 -11 0 -19 5 -19 10 0 6 -12 10 -27 10
-41 0 -55 13 -51 46 3 28 29 64 46 64 10 0 42 33 42 43 0 12 -44 7 -72 -7 -45
-24 -114 -12 -147 25 -30 32 -74 59 -97 59 -8 0 -14 7 -14 16 0 8 -5 12 -10 9
-6 -4 -21 4 -35 17 -13 13 -28 23 -33 23 -11 0 -58 33 -90 64 -22 20 -26 21
-34 7 -10 -17 -36 -11 -54 13 -10 13 -14 13 -35 -1 -22 -14 -26 -13 -43 3 -21
20 -54 21 -74 1 -17 -16 -38 -15 -70 2 -15 8 -38 17 -52 20 -14 4 -37 22 -52
42 -22 30 -29 33 -34 20 -3 -9 -13 -16 -21 -16 -8 0 -12 4 -9 9 3 4 -5 6 -17
4 -16 -3 -25 2 -32 18 -14 31 -35 36 -42 9 -4 -16 -8 -18 -14 -8 -7 10 -11 10
-25 -3 -15 -16 -18 -16 -35 -1 -10 9 -19 22 -19 28 0 24 -125 32 -134 9 -3 -8
-12 -15 -21 -15 -8 0 -15 7 -15 15 0 11 -11 15 -41 15 -24 0 -38 4 -34 10 3 6
-1 10 -10 10 -8 0 -21 11 -27 25 -6 14 -19 25 -28 25 -21 0 -70 23 -70 33 0 4
-7 7 -15 7 -8 0 -15 4 -15 8 0 4 -20 14 -45 21 -33 10 -45 18 -45 32 0 10 -7
19 -15 19 -8 0 -15 -4 -15 -10 0 -20 -29 -9 -60 21 -30 31 -31 31 -37 10 -3
-11 -9 -21 -14 -21 -18 0 -105 52 -120 72 -11 14 -28 21 -57 22 -28 0 -42 5
-42 14 0 8 -9 16 -21 19 -16 5 -18 8 -7 15 9 7 7 8 -8 4 -26 -8 -63 26 -71 65
-3 16 -9 32 -14 35 -4 2 -11 31 -15 64 -4 33 -10 58 -13 55 -4 -2 -13 30 -20
71 -7 41 -16 74 -21 74 -4 0 -11 20 -14 45 -4 24 -11 47 -16 50 -5 3 -7 12 -4
20 3 8 -1 24 -10 37 -9 12 -16 32 -16 45 0 12 -5 25 -11 29 -6 3 -8 17 -5 30
5 17 2 24 -8 24 -10 0 -17 15 -22 45 -4 28 -10 42 -17 38 -6 -4 -8 0 -4 10 3
9 2 19 -3 22 -4 3 -8 32 -7 64 1 35 -4 65 -12 75 -7 8 -9 21 -5 27 14 23 15
140 2 158 -12 14 -11 15 5 2 23 -18 35 -6 18 21 -11 18 -11 20 4 14 12 -4 16
-2 12 8 -3 8 -1 16 4 18 5 2 12 17 14 33 2 17 4 32 5 35 3 7 7 24 8 36 1 7 11
14 22 17 13 3 18 10 14 21 -4 10 1 18 12 23 17 6 47 39 50 53 0 3 6 17 11 31
6 14 15 47 18 73 l8 48 -69 -6 c-90 -7 -203 -39 -284 -80 -36 -18 -103 -50
-150 -71 -78 -35 -278 -149 -290 -165 -17 -23 -220 -116 -360 -165 -138 -47
-372 -135 -695 -261 -62 -24 -280 -100 -580 -204 -145 -50 -434 -144 -610
-197 -46 -14 -142 -53 -225 -90 -19 -9 -132 -49 -250 -90 -282 -96 -437 -168
-575 -264 -60 -43 -123 -91 -138 -107 l-28 -29 48 -43 c69 -61 320 -234 513
-355 840 -522 1851 -924 2920 -1160 259 -57 529 -107 670 -125 47 -6 95 -13
108 -15 19 -5 22 -1 22 23 0 43 -22 83 -42 76 -10 -3 -18 -1 -18 5 0 6 5 11
10 11 20 0 10 19 -12 23 l-23 4 23 2 c12 0 22 5 22 11 0 5 -6 7 -14 4 -8 -3
-17 0 -22 7 -4 7 -2 15 4 17 17 5 15 16 -8 42 -12 13 -18 30 -15 38 6 17 -13
80 -32 103 -7 8 -13 19 -13 24 0 4 -14 37 -31 74 -17 36 -42 91 -56 121 -15
30 -41 81 -60 113 -18 32 -33 69 -33 83 0 14 -4 22 -10 19 -5 -3 -10 2 -10 12
0 11 -5 24 -12 31 -9 9 -8 12 4 12 33 0 28 21 -16 65 -44 44 -82 102 -78 118
1 4 -5 10 -13 13 -8 4 -15 13 -15 20 0 8 -7 17 -16 21 -13 5 -13 7 -2 14 11 7
10 11 -1 18 -8 5 -16 17 -17 27 -2 9 -8 20 -14 24 -6 4 -8 14 -4 23 3 10 1 17
-5 17 -6 0 -11 8 -11 18 0 11 -9 27 -19 36 -11 10 -17 24 -14 32 3 8 0 14 -6
14 -6 0 -11 13 -11 29 0 17 -5 33 -11 36 -5 4 -8 12 -6 18 2 6 -5 19 -15 29
-10 10 -18 26 -18 36 0 9 -7 26 -15 36 -29 39 -14 37 28 -4 40 -39 352 -280
362 -280 3 0 63 -38 133 -84 116 -76 264 -156 291 -156 6 0 45 -14 88 -31 43
-17 152 -57 243 -89 91 -32 183 -65 205 -74 22 -8 50 -15 62 -16 12 0 25 -4
28 -10 3 -5 16 -10 29 -10 13 0 58 -10 102 -21 43 -12 90 -23 104 -25 14 -2
72 -10 130 -18 58 -8 134 -19 170 -25 78 -13 263 -15 445 -6 197 9 520 65 608
104 23 11 56 24 72 29 122 42 237 87 284 112 30 17 61 30 68 30 18 0 17 -35
-2 -50 -8 -7 -15 -20 -15 -29 0 -10 -13 -45 -30 -79 -16 -34 -30 -67 -30 -73
0 -6 -7 -17 -15 -25 -8 -9 -15 -24 -15 -35 0 -11 -6 -22 -14 -25 -7 -3 -19
-23 -26 -44 -7 -22 -21 -47 -32 -56 -10 -10 -18 -24 -18 -33 0 -9 -9 -22 -20
-29 -11 -7 -20 -20 -20 -30 0 -10 -11 -29 -25 -42 -14 -13 -25 -29 -25 -36 0
-7 -6 -19 -13 -26 -7 -7 -27 -35 -44 -63 -18 -27 -38 -57 -45 -65 -17 -20 -38
-60 -38 -74 0 -6 -16 -28 -35 -49 -19 -21 -35 -40 -35 -43 0 -3 -16 -29 -35
-58 -19 -29 -35 -56 -35 -60 0 -10 83 -7 291 9 1687 134 3237 624 4521 1428
187 118 459 307 540 376 45 39 48 45 48 89 0 74 -8 89 -45 96 -18 4 -39 14
-46 23 -16 19 -146 83 -169 83 -9 0 -62 23 -117 50 -56 28 -106 50 -112 50 -7
0 -33 11 -59 24 -26 13 -88 41 -137 61 -153 62 -298 120 -347 139 -25 9 -52
24 -58 32 -7 7 -21 14 -30 14 -10 0 -60 19 -112 43 -110 51 -150 68 -338 136
-47 17 -107 36 -134 41 -27 6 -85 26 -130 44 -44 18 -117 45 -161 60 -44 15
-161 55 -260 90 -99 35 -234 82 -300 105 -240 82 -261 89 -310 110 -57 23
-283 98 -335 110 -19 4 -61 20 -94 35 -32 14 -67 26 -78 26 -26 0 -143 37
-194 61 -23 10 -50 19 -62 19 -11 0 -35 12 -53 27 -37 33 -129 87 -288 173
-112 60 -175 86 -276 117 -90 27 -86 13 -80 286 5 220 7 243 26 274 11 18 28
39 37 46 18 13 36 46 47 84 5 20 68 110 133 193 15 19 35 48 46 65 10 16 27
39 37 50 49 54 102 124 121 159 11 22 37 61 58 87 21 27 44 66 50 86 7 21 28
64 47 95 41 69 95 275 119 453 9 66 24 138 34 160 10 22 22 57 25 78 4 20 14
41 22 45 7 5 21 35 29 67 9 32 21 67 29 79 25 38 33 121 20 186 -7 33 -9 62
-5 65 11 7 20 -6 20 -27 0 -11 5 -18 12 -16 15 5 26 41 27 89 1 20 10 56 21
80 11 24 20 61 20 81 0 21 6 41 14 45 10 6 16 48 24 152 7 110 13 147 25 156
8 6 19 29 22 50 4 22 11 45 14 50 12 17 56 142 111 315 29 91 57 170 61 176 5
6 6 13 3 16 -3 4 2 30 10 59 18 59 21 129 6 129 -5 0 -7 7 -4 14 8 22 -27 76
-54 83 -18 4 -20 8 -11 19 9 11 8 14 -4 14 -9 0 -18 -4 -21 -9 -4 -5 -22 -5
-43 0 -40 9 -38 10 -106 -58 -10 -10 -34 -39 -53 -65 -56 -76 -99 -57 -58 25
9 18 23 39 30 47 7 9 20 34 27 56 8 22 26 56 40 76 39 58 66 179 75 327 4 73
3 139 -1 147 -5 9 -3 28 6 47 8 18 18 77 21 132 4 55 11 125 16 155 17 102 19
135 9 190 -6 33 -7 75 -2 105 5 32 4 80 -4 135 -24 160 -27 218 -13 235 17 20
5 105 -21 157 -23 45 -38 119 -45 223 -6 83 -46 220 -74 255 -40 49 -79 166
-80 238 0 21 -5 32 -15 32 -19 0 -35 32 -28 58 12 49 -52 150 -194 305 -29 32
-72 86 -95 120 -109 161 -225 281 -327 338 -31 17 -79 49 -108 70 -29 22 -56
39 -61 39 -5 0 -15 7 -23 16 -7 8 -36 27 -63 41 -28 14 -59 32 -68 40 -13 12
-21 12 -38 3 -12 -6 -29 -9 -37 -6 -14 6 -14 8 1 24 15 17 14 19 -19 35 -20 9
-46 17 -58 17 -12 0 -34 6 -49 14 -14 8 -44 17 -67 21 -22 4 -45 13 -51 20 -6
8 -29 13 -51 13 -50 -1 -156 38 -190 69 -31 28 -45 29 -52 3 -8 -29 -37 -37
-53 -14 -26 37 -48 54 -65 49 -18 -6 -69 13 -69 26 0 5 -6 6 -14 3 -8 -3 -17
-1 -20 4 -3 6 -16 8 -28 5 -23 -7 -50 20 -42 41 8 20 -82 7 -102 -15 -9 -10
-23 -19 -31 -19 -7 0 -13 -7 -13 -16 0 -13 -6 -10 -25 10 -14 15 -30 24 -35
21 -6 -3 -13 1 -16 9 -7 18 -39 22 -49 6 -3 -5 -12 -7 -19 -4 -7 3 -30 -4 -50
-15 -44 -25 -44 -25 -48 -4 -2 13 -16 17 -73 18 -38 1 -94 9 -122 19 -30 10
-58 14 -65 9 -17 -11 -58 -11 -51 0 2 4 -14 7 -36 5 -23 -1 -46 3 -53 10 -14
14 -22 14 -63 0z m-1085 -358 c0 -5 -5 -10 -11 -10 -5 0 -7 5 -4 10 3 6 8 10
11 10 2 0 4 -4 4 -10z m689 -961 c22 -23 41 -47 41 -54 0 -16 25 -37 33 -28 4
3 0 17 -9 30 -8 13 -13 30 -10 36 2 7 5 5 5 -4 1 -24 45 -51 59 -37 8 8 15 8
27 -2 19 -15 34 -5 17 12 -17 17 -15 28 7 28 10 0 21 -9 24 -20 7 -26 52 -43
77 -30 13 7 21 7 25 0 3 -5 13 -10 22 -10 9 0 22 -8 30 -17 13 -17 14 -16 8 5
-4 13 -2 22 4 22 6 0 11 -4 11 -10 0 -5 6 -10 13 -10 6 0 22 -22 35 -50 13
-27 25 -50 27 -50 2 0 1 16 -2 35 -6 38 9 48 26 18 9 -16 10 -15 11 7 0 20 2
22 11 10 8 -12 9 -9 5 13 -9 40 18 47 49 13 14 -15 30 -24 35 -21 6 3 10 0 10
-8 0 -8 7 -20 15 -27 10 -9 15 -9 15 -1 0 6 5 11 10 11 6 0 10 -7 10 -15 0
-16 16 -21 22 -6 6 17 59 -1 68 -23 7 -18 9 -19 15 -4 3 9 8 25 9 35 2 10 11
18 22 18 14 0 20 -9 23 -30 4 -30 4 -30 11 -5 7 26 15 28 62 15 l28 -7 -6 46
c-5 31 -3 46 5 46 6 0 11 -11 11 -25 0 -23 2 -24 23 -13 29 17 38 30 32 47 -8
20 40 60 65 54 11 -3 20 -9 20 -14 0 -5 7 -6 15 -3 10 4 15 0 15 -15 0 -26 10
-27 38 -1 12 11 27 20 35 20 7 0 23 9 35 20 l21 20 21 -27 c11 -14 23 -23 27
-20 3 4 14 0 24 -9 16 -14 19 -13 40 15 25 33 39 40 39 17 0 -8 4 -18 10 -21
5 -3 7 0 4 9 -4 12 3 15 35 14 34 0 41 -4 41 -21 0 -18 2 -19 18 -5 26 23 59
28 79 12 17 -13 17 -13 1 -14 -10 0 -18 -7 -18 -15 0 -8 6 -12 14 -9 8 3 21
-5 30 -17 8 -13 19 -19 23 -15 5 5 2 11 -4 13 -7 3 -13 9 -13 15 0 7 4 7 13 0
7 -6 23 -9 35 -5 12 3 22 1 22 -4 0 -5 27 -7 61 -5 55 4 60 3 57 -14 -2 -13 2
-18 15 -16 9 2 17 -2 17 -8 0 -5 -7 -10 -15 -10 -8 0 -15 -5 -15 -11 0 -7 11
-9 28 -6 15 3 34 2 42 -3 9 -5 19 -5 26 1 9 7 18 1 34 -21 12 -16 26 -27 31
-24 6 3 10 0 8 -7 -3 -28 1 -39 16 -39 8 0 15 7 15 16 0 8 5 12 10 9 6 -4 8
-10 5 -15 -3 -5 1 -24 10 -41 9 -17 14 -41 11 -53 -4 -18 -1 -22 16 -22 17 1
23 -7 29 -31 4 -23 2 -36 -7 -44 -20 -17 -17 -29 7 -29 19 0 21 -4 16 -34 -4
-27 -2 -35 12 -39 14 -3 17 -12 13 -36 -3 -24 -1 -31 12 -31 9 0 16 -5 16 -10
0 -7 -7 -7 -21 0 -15 9 -24 8 -35 0 -17 -15 -9 -30 17 -30 11 0 17 -5 14 -10
-3 -6 1 -13 10 -16 9 -4 14 -12 11 -20 -3 -8 6 -15 25 -19 16 -4 29 -10 29
-15 0 -4 9 -10 20 -13 15 -4 20 -14 20 -36 0 -24 4 -31 20 -31 14 0 20 -7 20
-22 0 -13 3 -32 6 -44 3 -13 1 -21 -8 -23 -7 -1 -35 -4 -61 -7 -32 -4 -52 -12
-60 -25 -12 -20 -37 -26 -37 -9 0 16 -17 12 -47 -14 -27 -23 -28 -23 -47 -5
-21 20 -46 25 -46 9 0 -5 9 -10 19 -10 11 0 22 -9 26 -20 5 -16 10 -17 31 -10
28 11 30 8 9 -14 -12 -11 -23 -12 -48 -5 -26 7 -34 6 -45 -8 -7 -10 -10 -23
-8 -30 7 -17 -10 -17 -18 0 -5 10 -7 10 -12 0 -8 -18 -24 -16 -24 1 0 16 -18
31 -27 23 -3 -3 -1 -12 3 -19 13 -20 15 -48 4 -48 -6 0 -10 -11 -10 -25 0 -16
6 -25 15 -25 8 0 15 -7 15 -15 0 -8 11 -17 25 -21 16 -4 28 -17 35 -40 7 -19
17 -34 23 -33 7 1 20 -1 30 -5 21 -10 23 -38 2 -30 -18 7 -20 -18 -4 -48 7
-13 14 -17 18 -10 4 7 12 8 21 1 13 -8 12 -12 -5 -25 -18 -13 -21 -13 -31 1
-14 19 -44 20 -44 0 0 -8 5 -15 11 -15 8 0 8 -4 -1 -14 -6 -8 -10 -25 -8 -38
2 -13 -5 -32 -14 -42 -15 -16 -20 -17 -33 -6 -14 11 -17 10 -22 -9 -4 -16 -11
-21 -24 -18 -16 4 -17 2 -8 -14 8 -16 6 -19 -15 -19 -13 0 -26 -6 -29 -14 -4
-9 -14 -12 -26 -9 -12 3 -36 -4 -57 -17 -26 -17 -38 -20 -43 -11 -6 9 -11 8
-21 -4 -7 -9 -19 -14 -26 -11 -16 6 -84 -12 -84 -22 0 -5 -27 -14 -60 -20 -33
-7 -60 -17 -60 -23 0 -6 -8 -9 -17 -8 -10 1 -29 -3 -44 -8 -14 -6 -37 -9 -52
-6 -18 4 -34 0 -46 -11 -10 -9 -44 -21 -76 -27 -32 -6 -68 -14 -81 -19 -14 -6
-26 -6 -29 0 -3 5 -17 5 -33 0 -35 -11 -142 -22 -207 -21 -93 1 -210 13 -221
21 -5 5 -20 7 -32 4 -30 -8 -232 26 -259 43 -12 8 -27 12 -33 8 -5 -3 -15 -3
-21 1 -7 4 -29 9 -50 10 -21 2 -58 11 -82 19 -25 8 -52 13 -60 9 -8 -3 -18 -1
-22 5 -3 6 -23 11 -44 11 -20 0 -41 4 -46 9 -6 5 -32 11 -60 14 -90 9 -215 49
-215 69 0 5 -4 8 -10 8 -5 0 -10 -7 -10 -15 0 -8 -4 -15 -10 -15 -5 0 -10 5
-10 10 0 6 -6 10 -12 10 -7 0 -26 7 -42 15 -21 11 -32 12 -42 4 -17 -14 -74
-2 -81 18 -3 8 -14 13 -24 10 -13 -3 -19 0 -19 10 0 13 -10 15 -55 10 -32 -3
-57 -1 -61 4 -3 6 -12 8 -20 5 -8 -3 -14 0 -14 8 0 8 -10 11 -30 8 -19 -3 -37
2 -48 11 -19 17 -81 25 -100 13 -19 -11 -45 2 -38 19 3 9 0 15 -9 15 -8 0 -15
-4 -15 -10 0 -18 -20 -11 -20 8 -1 16 -1 16 -13 0 -10 -12 -25 -16 -58 -14
-24 2 -48 5 -54 6 -13 4 -46 -10 -63 -27 -7 -7 -29 -15 -50 -18 -20 -3 -49
-12 -64 -20 -23 -11 -26 -11 -21 1 8 21 -20 17 -45 -6 -12 -12 -22 -16 -22
-10 0 5 -9 10 -21 10 -14 0 -19 -5 -16 -14 8 -19 -3 -28 -19 -15 -10 8 -16 5
-26 -10 -7 -12 -17 -21 -23 -21 -6 0 -16 -13 -23 -29 -9 -19 -18 -28 -28 -24
-9 3 -14 -2 -14 -15 0 -11 -6 -25 -13 -31 -8 -6 -24 -30 -36 -55 -23 -43 -24
-44 -104 -60 -44 -9 -84 -22 -89 -29 -5 -9 -12 -9 -25 -1 -15 9 -17 23 -15 80
10 217 17 281 32 299 14 16 39 98 34 107 -3 4 1 8 8 8 7 0 26 19 42 42 17 23
25 39 20 35 -7 -4 -10 7 -10 27 1 25 10 42 34 62 18 16 32 36 32 46 0 10 6 18
13 18 7 0 12 15 13 42 0 36 6 46 45 80 24 21 49 38 55 38 6 0 25 14 43 31 24
22 30 34 22 43 -6 7 -8 16 -4 19 3 4 12 -1 18 -10 11 -15 14 -13 29 16 10 18
15 38 13 45 -3 6 1 20 9 31 8 10 14 25 14 33 0 7 7 20 15 28 13 14 15 14 15 0
0 -9 5 -16 10 -16 6 0 10 4 10 9 0 12 55 97 82 127 11 12 20 28 22 36 3 23 44
88 56 88 5 0 10 8 10 18 0 18 55 52 83 52 7 0 13 9 14 20 1 16 -3 18 -30 14
l-32 -6 25 18 c18 13 45 18 105 20 98 2 95 1 95 15 0 6 -9 9 -20 6 -17 -4 -18
-2 -9 14 11 21 43 24 83 9 15 -5 26 -6 26 0 0 5 9 12 20 15 11 3 20 15 20 26
0 21 1 22 24 13 9 -3 16 -13 16 -21 0 -12 11 -14 63 -8 34 4 67 13 73 21 15
18 38 18 54 -1 20 -25 31 -17 25 18 l-6 32 80 0 c77 0 81 1 81 23 0 12 2 22 4
22 2 0 12 3 20 6 12 5 15 2 10 -10 -4 -11 -1 -16 11 -16 21 0 75 31 75 43 0 5
7 6 16 3 13 -5 15 -2 11 14 -3 11 -1 20 4 20 5 0 9 -4 9 -10 0 -5 14 -10 30
-10 25 0 30 4 30 25 0 28 21 33 40 10 7 -8 20 -15 29 -15 14 0 14 2 1 10 -12
8 -12 10 -1 10 11 0 11 3 1 15 -27 33 10 13 49 -26z m281 -45 c0 -2 -6 -4 -14
-4 -15 0 -29 38 -19 52 4 8 33 -34 33 -48z m80 -9 c0 -5 -9 1 -20 15 -11 14
-20 30 -20 35 0 6 9 -1 20 -15 11 -14 20 -29 20 -35z m277 -7 c-3 -8 -6 -5 -6
6 -1 11 2 17 5 13 3 -3 4 -12 1 -19z m-1547 -143 c0 -8 -4 -15 -9 -15 -5 0
-14 7 -21 15 -10 13 -9 15 9 15 12 0 21 -6 21 -15z m-573 -619 c-2 -6 -18 -19
-36 -30 l-32 -18 17 35 c12 26 21 33 36 29 10 -2 17 -10 15 -16z m3812 -62 c2
-2 2 -7 -1 -10 -4 -3 -19 2 -35 11 l-28 16 30 -6 c16 -4 32 -9 34 -11z m-72
-10 c2 -6 -6 -14 -19 -17 -13 -3 -33 -9 -45 -12 -15 -5 -23 -3 -23 4 0 6 11
11 25 11 16 0 25 6 25 16 0 17 31 16 37 -2z m88 -24 c3 -5 1 -10 -4 -10 -6 0
-11 5 -11 10 0 6 2 10 4 10 3 0 8 -4 11 -10z m72 -106 c-3 -3 -12 -4 -19 -1
-8 3 -5 6 6 6 11 1 17 -2 13 -5z m-4124 -141 c-7 -3 -13 -11 -13 -19 0 -9 -5
-12 -11 -9 -7 5 -4 14 7 26 9 11 20 16 23 13 3 -4 0 -9 -6 -11z m3677 13 c0
-3 -4 -8 -10 -11 -5 -3 -10 -1 -10 4 0 6 5 11 10 11 6 0 10 -2 10 -4z m30 -30
c0 -3 -4 -8 -10 -11 -5 -3 -10 -1 -10 4 0 6 5 11 10 11 6 0 10 -2 10 -4z m-5
-204 c0 -18 -20 -15 -23 4 -3 10 1 15 10 12 7 -3 13 -10 13 -16z m53 -3 c-2
-6 -8 -10 -13 -10 -5 0 -11 4 -13 10 -2 6 4 11 13 11 9 0 15 -5 13 -11z m-71
-61 c-3 -8 -6 -5 -6 6 -1 11 2 17 5 13 3 -3 4 -12 1 -19z m-3960 -150 c-2 -13
-4 -5 -4 17 -1 22 1 32 4 23 2 -10 2 -28 0 -40z m1212 -152 c-8 -8 -108 -10
-116 -3 -3 4 22 7 57 7 35 0 61 -2 59 -4z m-289 -10 c0 -2 -11 -6 -25 -8 -13
-3 -22 -1 -19 3 5 9 44 13 44 5z m585 -6 c17 -7 15 -9 -12 -9 -17 -1 -35 4
-38 9 -7 12 22 12 50 0z m-725 -4 c0 -2 -7 -7 -16 -10 -8 -3 -12 -2 -9 4 6 10
25 14 25 6z m73 -3 c-7 -2 -21 -2 -30 0 -10 3 -4 5 12 5 17 0 24 -2 18 -5z
m-283 -21 c0 -4 -28 -14 -62 -21 -77 -17 -137 -39 -160 -59 -10 -8 -18 -10
-18 -5 0 24 100 68 185 82 28 5 51 9 53 10 1 0 2 -3 2 -7z m223 -30 c-6 -4
-14 -19 -18 -33 -4 -15 -18 -36 -31 -48 -13 -11 -24 -25 -24 -31 0 -20 20 -9
46 26 21 27 33 35 51 31 13 -2 26 0 29 4 3 5 15 9 27 9 12 0 31 7 41 15 11 8
31 15 45 15 l26 0 -25 -20 -25 -20 27 0 c15 0 30 5 33 10 3 6 13 10 21 10 8 0
12 -4 9 -10 -9 -14 1 -12 36 6 17 8 36 13 42 11 7 -2 20 0 29 4 22 12 51 0 44
-17 -7 -17 -2 -17 32 0 22 11 47 12 132 3 110 -11 122 -14 103 -25 -7 -5 -3
-11 13 -19 13 -6 24 -7 24 -2 0 17 81 7 173 -21 20 -6 27 -5 24 3 -3 7 -10 11
-16 10 -6 -2 -11 2 -11 8 0 5 -4 7 -10 4 -5 -3 -10 -2 -10 4 0 5 19 11 43 13
l42 3 -32 18 c-40 21 -45 41 -7 27 14 -6 37 -11 52 -11 17 -1 21 -3 10 -6 -10
-2 -18 -8 -18 -11 0 -12 40 -33 50 -27 5 3 23 -1 40 -10 52 -27 57 -11 7 18
-56 33 -62 54 -11 32 51 -21 51 -20 8 20 -42 39 -33 45 24 16 92 -46 105 -51
111 -45 3 3 -3 13 -14 21 -19 15 -19 15 5 10 54 -11 174 -49 204 -64 63 -32
119 -86 144 -141 22 -49 24 -64 19 -146 -12 -222 -148 -654 -263 -833 -35 -54
-95 -123 -108 -123 -13 0 -5 16 25 48 19 20 25 32 16 32 -17 0 -30 27 -21 41
3 5 10 6 16 3 6 -4 5 -10 -3 -15 -8 -5 -9 -9 -4 -9 19 0 45 39 38 57 -5 12 -2
15 10 10 11 -4 14 -2 10 8 -3 9 6 21 26 32 20 12 29 23 26 34 -3 9 6 30 20 47
14 16 28 44 31 61 l7 31 -55 0 c-30 0 -59 -5 -65 -11 -7 -7 -31 -12 -55 -12
-24 0 -46 -5 -50 -11 -4 -6 -8 -7 -8 -1 0 6 5 17 10 25 8 12 13 13 30 3 25
-16 30 -16 30 1 0 7 -15 17 -32 22 -24 7 -34 16 -36 34 -2 14 -8 29 -13 35
-14 14 -11 28 6 22 8 -4 17 -2 20 2 7 12 52 19 66 11 13 -9 58 12 70 32 24 37
-18 111 -79 141 -33 15 -36 43 -4 40 14 -2 22 3 22 13 0 22 -91 116 -107 110
-8 -3 -13 2 -13 15 0 11 -4 18 -9 15 -5 -4 -7 3 -4 14 3 11 10 20 16 20 6 0 8
2 5 5 -9 10 -38 -7 -38 -22 0 -8 -5 -11 -10 -8 -7 4 -7 13 0 26 13 24 5 39
-21 39 -10 0 -19 4 -19 8 0 5 -11 14 -25 20 -23 11 -25 10 -25 -13 0 -32 -29
-33 -120 -4 -36 11 -97 23 -136 26 -68 5 -71 4 -104 -26 -19 -17 -45 -31 -57
-31 -17 0 -23 -6 -24 -22 0 -16 -2 -18 -6 -8 -14 35 -59 33 -47 -2 4 -14 0
-21 -15 -25 -11 -3 -18 -9 -15 -14 6 -10 52 -2 70 12 6 5 20 0 35 -14 13 -12
27 -21 32 -19 4 1 15 -4 23 -12 18 -18 10 -24 -59 -42 -69 -18 -107 -18 -107
1 0 8 -7 15 -15 15 -11 0 -14 -7 -9 -25 5 -20 3 -25 -14 -25 -11 0 -33 -7 -48
-15 -16 -8 -37 -12 -46 -9 -10 3 -18 1 -18 -5 0 -6 -7 -11 -15 -11 -8 0 -20
-9 -27 -19 -12 -19 -36 -18 -50 3 -4 6 -10 7 -14 3 -4 -3 -2 -12 3 -19 19 -24
0 -43 -44 -46 -24 -1 -43 1 -43 6 0 4 -9 18 -21 31 l-21 22 21 6 c21 5 30 23
11 23 -5 0 -7 7 -4 15 4 8 2 15 -4 15 -6 0 -12 -5 -14 -11 -2 -6 -14 -5 -32 5
-35 18 -50 12 -36 -15 8 -14 7 -19 -3 -19 -18 0 -22 -81 -5 -92 10 -6 10 -10
-2 -19 -13 -9 -13 -11 1 -21 26 -18 5 -68 -28 -68 -13 0 -21 -4 -18 -10 3 -5
20 -7 38 -4 l32 6 -25 -21 c-14 -11 -28 -21 -32 -21 -5 0 -8 -5 -8 -10 0 -7 6
-7 19 0 27 14 31 13 31 -10 0 -11 5 -20 10 -20 6 0 10 -7 10 -16 0 -13 3 -14
14 -5 12 10 17 8 26 -8 6 -12 19 -21 29 -21 10 0 21 -9 24 -20 8 -30 27 -24
27 8 0 30 49 100 50 70 0 -9 -4 -27 -9 -40 -7 -20 -6 -24 10 -25 10 -1 24 7
30 18 13 25 65 48 90 42 19 -5 22 -12 20 -48 -1 -18 0 -18 9 3 12 27 30 29 23
2 -3 -11 0 -20 6 -20 6 0 11 7 11 15 0 11 7 13 29 9 16 -4 32 -1 35 5 4 6 24
10 44 10 20 -1 29 -3 20 -6 -30 -8 -20 -24 10 -17 38 9 46 15 33 24 -7 3 2 7
19 7 34 0 34 -1 20 -28 -13 -23 2 -26 20 -4 23 27 110 9 128 -28 11 -21 11
-21 7 6 -3 21 0 27 15 27 10 0 22 5 25 10 11 18 44 -9 53 -43 7 -26 14 -32 35
-32 14 0 34 -8 44 -17 11 -11 13 -18 5 -18 -7 0 -12 -6 -12 -14 0 -10 9 -14
28 -11 18 2 27 8 25 20 0 10 4 14 12 11 7 -2 21 2 32 9 10 8 14 15 8 16 -30 4
-41 3 -46 -5 -4 -5 -13 -5 -20 -1 -21 14 59 37 82 24 10 -5 19 -14 19 -19 0
-5 6 -7 14 -4 8 3 16 -4 20 -19 6 -25 31 -42 47 -31 5 3 6 11 2 17 -4 7 0 6
10 -2 13 -10 20 -11 31 -2 12 10 14 9 12 -6 -2 -14 -13 -19 -50 -21 -44 -3
-57 -22 -15 -22 18 0 19 -2 5 -15 -11 -11 -21 -13 -40 -5 -17 6 -26 6 -26 0 0
-6 -15 -10 -33 -10 -29 0 -33 -3 -32 -22 1 -13 9 -24 18 -26 29 -6 19 -22 -13
-22 -25 0 -30 -4 -30 -24 0 -32 -17 -42 -38 -23 -9 8 -24 14 -32 14 -8 1 -23
4 -32 8 -23 9 -25 -17 -3 -35 13 -11 13 -14 -2 -27 -13 -10 -15 -16 -5 -20 7
-2 19 -11 26 -19 11 -11 15 -11 19 -1 3 9 9 9 25 0 13 -8 23 -9 27 -3 11 17
23 11 18 -9 -3 -12 2 -20 16 -24 12 -3 19 -1 16 3 -3 5 11 14 32 21 31 10 38
9 49 -5 8 -11 14 -13 19 -7 7 13 25 15 25 3 0 -15 -106 -71 -182 -97 -161 -53
-512 -77 -743 -51 -334 38 -524 128 -605 286 -41 81 -86 221 -110 340 -43 216
-51 502 -15 522 8 5 27 26 41 46 l26 37 -6 -68 c-5 -60 -4 -67 9 -57 8 7 15
24 15 39 0 25 49 81 71 81 15 0 49 43 49 62 0 26 36 23 44 -4 l7 -23 9 23 c10
24 30 30 30 9 0 -7 -6 -19 -12 -26 -10 -11 -10 -12 -1 -7 7 4 23 -2 35 -13
l22 -21 -23 0 c-12 0 -19 -4 -16 -10 3 -5 19 -10 36 -10 20 0 29 -5 29 -16 0
-10 -6 -14 -15 -10 -19 7 -19 -4 0 -18 9 -6 16 -25 18 -43 1 -17 4 -30 6 -28
2 2 19 -8 38 -22 24 -18 31 -29 23 -37 -13 -13 -13 -29 0 -21 18 11 48 -5 54
-28 4 -17 8 -19 17 -10 9 9 9 16 1 26 -7 8 -9 17 -6 20 3 3 2 12 -2 19 -5 7
-7 24 -5 37 2 19 -1 22 -14 17 -14 -5 -16 -2 -11 18 8 34 -2 55 -24 49 -16 -4
-20 2 -26 46 -4 33 -11 51 -20 51 -22 0 -17 13 26 60 45 49 49 60 21 53 -25
-6 -36 14 -13 26 10 6 19 23 20 43 2 36 32 68 63 68 10 0 19 5 19 12 0 9 3 9
12 0 10 -10 10 -15 1 -20z m702 -31 c-3 -6 -11 -11 -17 -11 -6 0 -6 6 2 15 14
17 26 13 15 -4z m-1555 -173 c5 -138 8 -172 21 -181 9 -7 15 -18 13 -25 -1 -7
0 -8 3 -2 10 20 21 9 26 -27 7 -47 -4 -115 -19 -120 -14 -5 -25 58 -13 71 13
15 11 26 -6 26 -10 0 -17 14 -21 40 -4 22 -11 43 -15 46 -5 3 -9 84 -9 181 0
97 3 173 8 169 4 -4 9 -84 12 -178z m3527 176 c-3 -3 -12 -4 -19 -1 -8 3 -5 6
6 6 11 1 17 -2 13 -5z m-87 -14 c0 -5 -10 -10 -22 -9 -22 0 -22 1 -3 9 11 5
21 9 23 9 1 1 2 -3 2 -9z m37 4 c-3 -3 -12 -4 -19 -1 -8 3 -5 6 6 6 11 1 17
-2 13 -5z m-82 -21 c9 -12 10 -23 3 -36 -12 -23 10 -56 23 -35 6 10 13 10 26
2 13 -8 26 -8 48 2 48 20 104 25 144 13 27 -8 52 -8 96 1 67 14 80 15 147 5
39 -6 49 -5 54 9 3 9 13 16 21 16 8 0 11 -4 8 -10 -8 -13 28 -13 41 0 7 7 22
6 47 -5 42 -17 71 -20 62 -5 -3 6 -17 10 -31 10 -14 0 -22 4 -19 10 11 18 41
11 81 -18 52 -38 70 -44 111 -36 27 5 31 9 22 20 -9 11 -9 14 0 14 19 0 60
-53 61 -77 0 -13 5 -23 10 -23 7 0 9 17 6 43 -5 40 -4 41 9 17 8 -14 14 -20
15 -13 0 27 78 33 93 7 4 -8 20 -15 35 -15 17 -1 20 -3 10 -6 -19 -5 -25 -23
-7 -23 6 0 18 -7 26 -16 21 -20 3 -33 -34 -26 -17 3 -24 1 -19 -6 3 -6 -2 -15
-11 -21 -10 -5 -14 -13 -10 -18 5 -4 15 0 22 10 11 16 19 17 57 9 l43 -10 -32
-7 c-23 -5 -33 -13 -33 -26 0 -21 -8 -23 -30 -9 -9 5 -19 5 -27 -2 -9 -7 -13
-7 -13 1 0 6 -10 10 -22 8 -14 -1 -22 3 -21 11 2 6 -6 12 -17 12 -11 0 -20 4
-20 10 0 5 -6 7 -14 4 -8 -3 -17 -1 -20 5 -4 6 -13 8 -21 4 -8 -3 -15 -1 -15
5 0 5 -8 13 -17 17 -30 12 -132 15 -139 4 -4 -7 -10 -6 -19 1 -19 16 -102 15
-117 -1 -21 -22 -21 -49 0 -49 10 0 23 5 30 12 9 9 12 7 12 -10 0 -12 5 -22
10 -22 6 0 10 5 10 10 0 16 18 12 40 -10 11 -11 26 -17 34 -14 11 4 14 -1 13
-16 -1 -19 -6 -21 -35 -15 -43 8 -188 8 -312 -1 -88 -6 -158 -20 -271 -56 -56
-18 -93 -8 -85 22 3 11 9 29 12 40 4 15 -1 22 -20 30 -20 7 -26 17 -26 39 0
20 -4 29 -12 26 -8 -3 -14 4 -14 20 -1 14 3 25 8 25 6 0 5 7 -3 16 -10 13 -10
17 2 25 11 7 9 9 -7 9 -14 0 -24 -8 -28 -22 -6 -22 -7 -22 -20 -5 -11 14 -22
17 -48 12 -34 -6 -35 -6 -30 23 2 16 -1 33 -7 36 -7 5 -11 -2 -11 -18 0 -14
-4 -26 -10 -26 -5 0 -7 7 -4 15 4 8 2 15 -4 15 -16 0 -22 40 -6 41 16 2 23 4
44 12 16 6 88 24 104 26 5 1 15 -7 21 -16z m145 -17 c0 -3 -4 -8 -10 -11 -5
-3 -10 -1 -10 4 0 6 5 11 10 11 6 0 10 -2 10 -4z m-1216 -42 c3 -8 0 -14 -6
-14 -14 0 -48 30 -48 41 0 13 48 -12 54 -27z m1881 26 c3 -5 1 -10 -4 -10 -6
0 -11 5 -11 10 0 6 2 10 4 10 3 0 8 -4 11 -10z m-725 -10 c-19 -13 -30 -13
-30 0 0 6 10 10 23 10 18 0 19 -2 7 -10z m775 -10 c-3 -5 -13 -10 -21 -10 -8
0 -14 5 -14 10 0 6 9 10 21 10 11 0 17 -4 14 -10z m-3531 -54 c-3 -9 -10 -13
-16 -10 -5 3 -4 12 3 20 15 18 22 13 13 -10z m4247 -37 c16 -11 40 -39 53 -62
25 -44 41 -143 27 -165 -5 -9 -10 5 -14 37 -7 56 -47 143 -85 184 -30 32 -22
35 19 6z m-4501 -12 c0 -14 -39 -41 -48 -33 -6 7 27 46 40 46 4 0 8 -6 8 -13z
m3595 -27 c3 -5 1 -10 -4 -10 -6 0 -11 5 -11 10 0 6 2 10 4 10 3 0 8 -4 11
-10z m1015 -31 c0 -11 -4 -19 -9 -19 -10 0 -21 24 -21 47 0 13 3 13 15 3 8 -7
15 -21 15 -31z m-471 -33 c-12 -10 -59 -15 -59 -6 0 5 14 10 32 10 17 0 29 -2
27 -4z m-384 -50 c15 -11 16 -15 5 -16 -18 0 -30 8 -50 34 -14 18 -14 19 5 8
11 -6 29 -17 40 -26z m385 -20 c0 -25 -27 -43 -42 -28 -12 12 0 40 20 45 10 3
18 5 20 6 1 0 2 -10 2 -23z m-1760 -13 c0 -13 -3 -13 -15 -3 -8 7 -12 16 -9
21 8 13 24 1 24 -18z m990 -8 c0 -8 -6 -15 -14 -15 -23 0 5 -50 29 -50 22 -1
55 -22 55 -37 0 -21 -22 -31 -53 -22 -22 6 -33 5 -39 -4 -6 -9 -10 -9 -17 1
-7 12 -12 12 -30 1 -17 -11 -25 -11 -41 -1 -11 6 -28 12 -37 12 -17 1 -17 1 0
14 10 8 27 11 39 8 15 -3 19 -1 16 9 -3 9 -17 13 -44 11 -33 -2 -36 -1 -21 9
11 6 34 11 53 11 33 0 64 22 50 35 -4 4 -11 1 -16 -7 -5 -8 -12 -11 -16 -7
-11 10 28 37 45 32 9 -4 12 1 8 15 -4 17 -2 18 14 9 10 -5 19 -16 19 -24z
m-1056 13 c14 -6 33 -22 42 -36 16 -24 16 -25 -6 -19 -15 4 -20 2 -16 -8 2 -7
-4 -15 -15 -18 -10 -3 -19 -2 -19 3 0 16 -30 18 -59 4 -33 -16 -64 -16 -59 1
2 6 9 9 17 8 8 -1 21 5 29 13 13 13 11 14 -11 9 -28 -7 -44 9 -28 29 6 7 8 16
4 19 -11 12 95 8 121 -5z m-2034 -18 c-20 -13 -33 -13 -25 0 3 6 14 10 23 10
15 0 15 -2 2 -10z m1134 -5 c-6 -16 -24 -21 -24 -7 0 11 11 22 21 22 5 0 6 -7
3 -15z m-487 -27 c-3 -8 -6 -5 -6 6 -1 11 2 17 5 13 3 -3 4 -12 1 -19z m2488
2 c-3 -5 -10 -10 -16 -10 -5 0 -9 5 -9 10 0 6 7 10 16 10 8 0 12 -4 9 -10z
m-235 -40 c0 -5 -4 -10 -10 -10 -5 0 -10 5 -10 10 0 6 5 10 10 10 6 0 10 -4
10 -10z m-1019 -76 c6 -8 4 -18 -6 -28 -22 -22 -24 -21 -21 17 5 54 8 64 13
42 3 -11 9 -25 14 -31z m-47 -39 c-4 -17 -2 -25 6 -25 9 0 8 -6 -3 -18 -10
-10 -17 -21 -17 -24 0 -3 -14 -21 -32 -39 -19 -21 -27 -25 -20 -13 6 12 13 36
14 53 1 21 7 30 15 27 9 -4 13 4 13 23 0 25 7 34 28 40 1 1 0 -10 -4 -24z
m1010 -39 c19 5 22 1 23 -30 1 -19 8 -49 17 -67 9 -18 15 -33 14 -35 -2 -1
-17 4 -35 11 -22 9 -35 23 -39 42 -4 15 -12 34 -18 42 -8 11 -8 15 1 18 7 2
11 10 9 16 -1 7 -1 9 1 5 3 -5 15 -5 27 -2z m-1756 -25 c2 -1 2 -13 1 -29 -2
-15 1 -34 5 -42 5 -8 6 -12 2 -8 -5 4 -25 -3 -45 -16 -20 -12 -44 -26 -55 -29
-16 -6 -18 -4 -12 25 4 18 10 50 13 71 l5 39 42 -6 c22 -3 42 -5 44 -5z m1972
-31 c0 -26 -32 -35 -47 -14 -11 15 -10 21 4 36 18 21 43 8 43 -22z m-2569 18
c1 -7 1 -16 1 -19 -1 -3 15 -37 33 -74 19 -38 32 -71 30 -74 -14 -13 -172 47
-195 74 -6 8 -4 18 6 31 11 14 17 16 21 6 3 -8 18 1 44 28 40 41 58 49 60 28z
m202 -39 c13 -20 -18 -70 -38 -62 -21 8 -28 39 -13 63 15 23 36 23 51 -1z
m2710 -32 c-3 -13 -21 -32 -45 -45 -43 -26 -66 -21 -32 7 12 9 25 27 28 39 5
14 15 22 30 22 19 0 22 -4 19 -23z m-1536 -113 c-3 -3 -12 -4 -19 -1 -8 3 -5
6 6 6 11 1 17 -2 13 -5z m-1399 -26 c-6 -18 -28 -21 -28 -4 0 9 7 16 16 16 9
0 14 -5 12 -12z m-38 -19 c0 -6 -4 -7 -10 -4 -5 3 -10 11 -10 16 0 6 5 7 10 4
6 -3 10 -11 10 -16z m350 -24 c0 -8 -4 -15 -10 -15 -5 0 -10 7 -10 15 0 8 5
15 10 15 6 0 10 -7 10 -15z m399 -72 l26 -23 -30 6 c-16 4 -43 18 -60 32 -16
14 -23 23 -14 20 9 -4 22 -2 30 3 9 5 15 4 18 -3 2 -6 16 -22 30 -35z m171 28
c0 -17 -18 -21 -24 -6 -3 9 0 15 9 15 8 0 15 -4 15 -9z m1753 -22 c-7 -25 -10
-24 -15 5 -3 16 -1 23 7 19 7 -2 11 -13 8 -24z m57 -10 c0 -5 -7 -9 -15 -9 -9
0 -12 6 -9 15 6 15 24 11 24 -6z m-1900 1 c-20 -13 -40 -13 -40 0 0 6 12 10
28 10 21 0 24 -2 12 -10z m47 -22 c-3 -8 -6 -5 -6 6 -1 11 2 17 5 13 3 -3 4
-12 1 -19z m1007 -24 c3 -8 2 -12 -4 -9 -6 3 -10 10 -10 16 0 14 7 11 14 -7z
m40 -99 c13 -33 31 -78 40 -100 l17 -40 -20 24 c-18 24 -81 167 -81 186 0 20
21 -13 44 -70z m791 45 c3 -5 1 -10 -4 -10 -6 0 -11 5 -11 10 0 6 2 10 4 10 3
0 8 -4 11 -10z m-1345 -50 c0 -5 -4 -10 -10 -10 -5 0 -10 5 -10 10 0 6 5 10
10 10 6 0 10 -4 10 -10z m-653 -20 c1 -11 -4 -20 -13 -20 -14 0 -19 21 -7 33
11 12 19 7 20 -13z m-57 -101 c0 -4 -9 -13 -19 -19 -16 -8 -19 -7 -16 8 2 9 4
20 4 24 1 10 31 -2 31 -13z m2040 -49 c0 -5 -4 -10 -10 -10 -5 0 -10 5 -10 10
0 6 5 10 10 10 6 0 10 -4 10 -10z m-3095 -176 c71 -21 92 -30 72 -32 -74 -9
-304 77 -357 133 -21 22 -11 19 81 -24 57 -27 149 -62 204 -77z m3483 72 c3
-11 10 -25 17 -33 7 -7 11 -22 8 -34 -5 -19 -4 -20 17 -9 17 9 25 9 34 0 8 -9
8 -14 -2 -17 -16 -6 32 -33 59 -33 10 0 21 -4 24 -10 6 -10 56 -4 90 10 24 11
98 19 87 10 -9 -9 -146 -37 -239 -50 -39 -5 -121 -10 -182 -10 -94 0 -111 3
-120 18 -9 14 -10 14 -11 1 0 -16 -41 -17 -165 -4 -45 5 -50 8 -50 30 0 26 10
34 18 13 3 -10 11 -10 33 -2 21 7 28 16 27 32 -2 12 2 22 8 22 15 0 61 -49 55
-59 -3 -5 1 -14 8 -20 11 -10 16 -8 20 7 8 24 52 34 67 16 6 -8 22 -14 35 -14
13 0 24 -4 24 -10 0 -5 7 -10 16 -10 8 0 12 5 9 10 -3 6 0 10 7 11 7 0 -2 5
-19 10 -43 12 -44 39 -2 39 29 0 31 2 26 29 -7 34 9 54 33 41 14 -8 16 -5 12
16 -4 23 -2 25 24 22 19 -2 30 -10 32 -22z m-154 3 c-3 -6 0 -15 7 -20 11 -7
10 -9 -3 -9 -11 0 -18 8 -18 20 0 11 5 20 11 20 5 0 7 -5 3 -11z m-160 -13
c-21 -15 -30 -14 -19 3 3 6 14 11 23 11 13 0 13 -2 -4 -14z m126 -17 c0 -19
-26 -8 -27 12 -2 17 1 18 13 9 8 -7 14 -16 14 -21z m-57 -6 c-12 -4 -19 -43
-8 -43 3 0 17 7 30 16 28 18 55 13 55 -12 0 -12 -7 -15 -26 -11 -15 2 -31 -2
-40 -10 -13 -14 -16 -14 -28 2 -6 9 -21 15 -32 13 -13 -2 -20 3 -22 19 -3 18
3 22 30 26 49 6 54 6 41 0z m354 -65 c-3 -8 -6 -5 -6 6 -1 11 2 17 5 13 3 -3
4 -12 1 -19z m278 2 c-3 -5 -11 -10 -16 -10 -6 0 -7 5 -4 10 3 6 11 10 16 10
6 0 7 -4 4 -10z m-3670 -20 c16 -7 13 -9 -15 -8 -19 0 -46 4 -60 8 -21 7 -19
8 15 8 22 0 49 -3 60 -8z m3717 -70 c-12 -11 -26 -20 -31 -20 -6 0 -22 -11
-37 -25 -15 -14 -32 -25 -38 -25 -6 0 3 -10 21 -21 18 -11 35 -29 38 -40 4
-10 11 -19 16 -19 5 0 8 -3 8 -7 -5 -30 3 -41 24 -37 l22 5 -22 -17 c-29 -21
-29 -31 -2 -30 19 1 22 -5 25 -70 3 -54 0 -73 -10 -77 -11 -5 -14 -35 -7 -89
1 -5 8 -8 16 -8 17 0 20 -11 5 -26 -12 -12 -16 -89 -6 -136 7 -31 5 -37 -13
-43 -16 -5 -19 -10 -12 -24 7 -13 5 -22 -10 -34 -26 -23 -42 -21 -36 3 5 20
-7 28 -17 11 -11 -16 -46 -20 -46 -4 0 8 5 11 10 8 6 -3 10 3 10 14 0 12 5 21
11 21 5 0 7 5 3 11 -4 8 -9 7 -15 -2 -6 -11 -11 -11 -21 -1 -21 21 -28 13 -28
-33 0 -25 5 -45 10 -45 6 0 10 -4 10 -10 0 -20 -28 -10 -35 13 -4 12 -7 25 -6
28 0 4 -8 9 -19 12 -13 3 -17 1 -13 -9 3 -8 0 -14 -6 -14 -7 0 -14 7 -17 15
-4 9 -11 15 -18 14 -27 -3 -36 2 -36 21 0 11 5 20 10 20 6 0 10 -4 10 -10 0
-5 5 -10 10 -10 16 0 11 17 -6 24 -9 4 -25 4 -35 1 -25 -8 -26 -60 -1 -74 16
-10 16 -10 0 -11 -10 0 -18 -7 -18 -15 0 -8 7 -15 15 -15 8 0 15 -4 15 -9 0
-5 3 -17 7 -26 5 -14 2 -16 -16 -10 -14 4 -27 1 -37 -10 -9 -9 -23 -14 -31
-11 -14 6 -43 -15 -43 -30 0 -4 8 -13 18 -20 15 -12 14 -13 -10 -14 -30 0 -35
-9 -16 -28 13 -13 8 -15 -16 -6 -9 3 -16 15 -16 25 0 10 -7 19 -15 19 -8 0
-15 5 -15 10 0 6 -16 10 -35 10 -36 0 -47 -16 -19 -27 14 -5 13 -9 -7 -24
l-24 -19 28 0 c15 0 27 -3 27 -7 1 -5 5 -27 9 -51 5 -23 5 -45 0 -48 -5 -3 -9
-12 -9 -20 0 -13 5 -12 30 3 23 13 32 15 42 5 9 -9 9 -12 -4 -12 -8 0 -21 -6
-27 -14 -6 -7 -22 -13 -36 -13 -13 0 -26 6 -29 13 -8 22 -36 17 -36 -6 0 -17
-4 -19 -26 -14 -15 4 -35 15 -45 25 -10 10 -25 16 -34 13 -10 -4 -15 0 -15 14
0 12 -4 24 -10 27 -5 3 -10 1 -10 -4 0 -20 -18 -11 -23 11 -6 21 -7 21 -25 5
-17 -16 -20 -16 -25 -2 -7 17 -47 21 -47 3 0 -6 -9 -3 -21 8 -17 15 -23 16
-40 6 -16 -11 -19 -9 -19 8 0 13 -7 20 -18 20 -22 0 -62 35 -62 55 0 9 -6 12
-16 8 -8 -3 -25 3 -37 14 -12 10 -39 28 -60 38 -20 11 -35 25 -33 32 3 7 -3
14 -12 17 -21 7 -64 136 -51 152 12 15 -7 68 -21 59 -5 -3 -10 0 -10 9 0 8 6
16 13 19 9 3 9 7 0 19 -15 17 -7 28 19 28 11 0 17 4 13 9 -3 5 3 12 14 16 11
3 21 16 23 28 2 16 9 21 26 20 16 -2 22 2 22 17 0 10 8 23 17 29 14 7 15 12 5
24 -9 10 -10 17 -2 22 5 3 10 1 10 -5 0 -7 7 -5 16 5 11 11 13 19 6 28 -11 14
2 57 18 57 5 0 10 12 10 26 0 23 3 26 28 20 15 -3 21 -3 15 0 -21 9 -12 77 17
135 6 11 2 23 -11 35 -19 19 -17 19 114 7 166 -15 411 -16 514 -3 168 22 269
42 303 60 45 24 48 24 22 0z m-1582 -667 c0 -7 11 -13 24 -13 14 0 28 -5 32
-12 11 -17 6 -85 -8 -107 -16 -26 -67 -47 -101 -43 -33 4 -67 52 -67 95 0 26
-2 28 -35 21 -23 -4 -35 -2 -35 5 0 6 6 11 14 11 8 0 28 11 44 25 17 14 38 25
49 25 10 0 27 9 36 21 18 20 19 20 32 2 8 -10 15 -24 15 -30z m380 -23 c0 -5
-4 -10 -10 -10 -5 0 -10 5 -10 10 0 6 5 10 10 10 6 0 10 -4 10 -10z m1012
-102 c-9 -9 -12 -7 -12 12 0 19 3 21 12 12 9 -9 9 -15 0 -24z m-862 -118 c0
-5 -2 -10 -4 -10 -3 0 -8 5 -11 10 -3 6 -1 10 4 10 6 0 11 -4 11 -10z m647
-100 c8 -12 9 -21 3 -25 -6 -3 -10 1 -10 9 0 9 -4 16 -10 16 -5 0 -10 5 -10
10 0 16 14 11 27 -10z m-1455 -18 c3 -9 2 -26 -2 -37 -6 -15 -8 -10 -8 18 0
40 3 47 10 19z m1178 -52 c0 -5 -7 -10 -15 -10 -8 0 -15 5 -15 10 0 6 7 10 15
10 8 0 15 -4 15 -10z m-1155 -20 c3 -5 -1 -10 -9 -10 -22 0 -20 -17 4 -30 11
-6 20 -17 20 -24 0 -16 -37 -28 -46 -15 -3 5 0 9 5 9 6 0 11 5 11 12 0 6 -3 8
-7 5 -3 -4 -12 1 -18 10 -10 13 -10 21 -1 35 12 20 31 24 41 8z m1170 -20 c3
-5 -1 -10 -9 -10 -9 0 -16 5 -16 10 0 6 4 10 9 10 6 0 13 -4 16 -10z m210 -22
c-1 -12 -6 -23 -12 -25 -6 -2 -10 7 -9 22 0 14 6 25 12 25 6 0 10 -10 9 -22z
m-55 -13 c0 -14 -5 -25 -11 -25 -5 0 -8 4 -5 9 9 13 -19 32 -38 25 -9 -3 -16
-1 -16 5 0 6 16 11 35 11 31 0 35 -3 35 -25z m87 -19 c0 -26 -6 -37 -24 -45
-18 -8 -23 -8 -23 3 0 8 -6 17 -12 20 -7 3 -1 3 15 0 25 -6 27 -4 27 25 0 17
4 31 8 31 5 0 9 -15 9 -34z m-1480 2 c-3 -8 -6 -5 -6 6 -1 11 2 17 5 13 3 -3
4 -12 1 -19z m-17 -38 c0 -5 -4 -10 -10 -10 -5 0 -10 5 -10 10 0 6 5 10 10 10
6 0 10 -4 10 -10z m1509 -82 c-6 -11 -8 -30 -5 -42 5 -21 2 -23 -44 -24 -47
-1 -49 0 -40 19 6 11 8 24 5 29 -3 5 -1 11 5 15 5 3 10 -1 10 -9 0 -9 5 -16
10 -16 15 0 12 16 -6 35 -13 12 -14 19 -4 30 7 8 21 15 31 15 10 0 21 5 25 12
13 20 25 -42 13 -64z m-1475 27 c3 -8 1 -15 -4 -15 -6 0 -10 7 -10 15 0 8 2
15 4 15 2 0 6 -7 10 -15z m16 -49 c0 -27 -15 -42 -25 -26 -8 13 3 50 16 50 5
0 9 -11 9 -24z m90 -80 c0 -23 -38 -62 -49 -50 -7 7 30 74 41 74 4 0 8 -11 8
-24z m940 14 c8 -5 11 -10 5 -10 -5 0 -17 5 -25 10 -8 5 -10 10 -5 10 6 0 17
-5 25 -10z m390 0 c0 -5 -2 -10 -4 -10 -3 0 -8 5 -11 10 -3 6 -1 10 4 10 6 0
11 -4 11 -10z m71 -23 c-1 -12 -15 -9 -19 4 -3 6 1 10 8 8 6 -3 11 -8 11 -12z
m-1071 -27 c0 -5 -4 -10 -10 -10 -5 0 -10 5 -10 10 0 6 5 10 10 10 6 0 10 -4
10 -10z m795 -18 c-3 -3 -11 0 -18 7 -9 10 -8 11 6 5 10 -3 15 -9 12 -12z
m-610 -62 c-3 -5 -10 -10 -16 -10 -5 0 -9 5 -9 10 0 6 7 10 16 10 8 0 12 -4 9
-10z m10 -80 c3 -5 -1 -10 -9 -10 -9 0 -16 5 -16 10 0 6 4 10 9 10 6 0 13 -4
16 -10z m330 -840 c3 -5 1 -10 -4 -10 -6 0 -11 5 -11 10 0 6 2 10 4 10 3 0 8
-4 11 -10z m34 -41 c-19 -12 -49 -11 -49 0 0 10 40 20 54 13 4 -3 2 -8 -5 -13z
m-505 -475 c8 -22 8 -23 -11 -20 -10 2 -17 6 -15 9 1 4 2 12 2 17 0 16 17 12
24 -6z m-34 -149 c0 -8 -4 -15 -10 -15 -5 0 -10 7 -10 15 0 8 5 15 10 15 6 0
10 -7 10 -15z m627 -20 c-4 -29 -12 -32 -33 -10 -14 13 -14 15 0 15 9 0 16 5
16 10 0 6 5 10 10 10 6 0 9 -11 7 -25z m-637 -55 c0 -5 -4 -10 -10 -10 -5 0
-10 5 -10 10 0 6 5 10 10 10 6 0 10 -4 10 -10z m490 -49 c0 -6 -4 -13 -10 -16
-5 -3 -10 1 -10 9 0 9 5 16 10 16 6 0 10 -4 10 -9z m-35 -31 c-3 -5 -13 -10
-21 -10 -8 0 -12 5 -9 10 3 6 13 10 21 10 8 0 12 -4 9 -10z m165 -10 c0 -5 -4
-10 -9 -10 -6 0 -13 5 -16 10 -3 6 1 10 9 10 9 0 16 -4 16 -10z m-5 -40 c3 -5
1 -10 -4 -10 -6 0 -11 5 -11 10 0 6 2 10 4 10 3 0 8 -4 11 -10z m-196 -3 c-2
-1 -12 -9 -21 -16 -15 -12 -18 -11 -18 3 0 10 8 16 22 16 12 0 19 -1 17 -3z
m-2829 -132 c-7 -9 -20 -13 -28 -10 -7 3 -28 -1 -45 -9 -43 -19 -67 -26 -67
-21 0 3 19 13 43 23 58 27 69 30 91 31 15 1 16 -1 6 -14z m3010 5 c0 -5 -4
-10 -10 -10 -5 0 -10 5 -10 10 0 6 5 10 10 10 6 0 10 -4 10 -10z m-3161 -53
c-2 -2 -17 -11 -34 -21 l-30 -17 24 20 c13 12 28 21 34 21 6 0 8 -1 6 -3z m91
-17 c0 -5 -5 -10 -11 -10 -5 0 -7 5 -4 10 3 6 8 10 11 10 2 0 4 -4 4 -10z
m-30 -45 c0 -8 -7 -15 -15 -15 -9 0 -12 6 -9 15 4 8 10 15 15 15 5 0 9 -7 9
-15z m2501 -15 c5 0 9 -7 9 -15 0 -18 -5 -18 -31 -5 -23 13 -26 35 -3 26 9 -3
20 -6 25 -6z m-2620 -303 c-8 -8 -11 -7 -11 4 0 20 13 34 18 19 3 -7 -1 -17
-7 -23z m-32 -264 c-1 -38 -1 -38 -9 -9 -8 27 -6 46 6 46 2 0 4 -17 3 -37z
m3231 -138 c0 -19 -4 -35 -9 -35 -10 0 -21 57 -13 65 14 13 22 2 22 -30z m380
-285 c0 -5 -5 -10 -11 -10 -5 0 -7 5 -4 10 3 6 8 10 11 10 2 0 4 -4 4 -10z
m-3496 -231 c-3 -5 -10 -7 -15 -3 -5 3 -7 10 -3 15 3 5 10 7 15 3 5 -3 7 -10
3 -15z m3302 6 c-8 -8 -18 -15 -22 -15 -3 0 -1 7 6 15 7 8 17 15 22 15 5 0 3
-7 -6 -15z m-3276 -55 c0 -5 -4 -10 -10 -10 -5 0 -10 5 -10 10 0 6 5 10 10 10
6 0 10 -4 10 -10z m3035 -150 c-3 -5 -11 -10 -16 -10 -6 0 -7 5 -4 10 3 6 11
10 16 10 6 0 7 -4 4 -10z m-2948 -56 c-3 -3 -12 -4 -19 -1 -8 3 -5 6 6 6 11 1
17 -2 13 -5z m2863 -8 c0 -3 -4 -8 -10 -11 -5 -3 -10 -1 -10 4 0 6 5 11 10 11
6 0 10 -2 10 -4z m-2840 -46 c0 -11 -4 -20 -10 -20 -5 0 -10 9 -10 20 0 11 5
20 10 20 6 0 10 -9 10 -20z m2455 -40 c3 -5 1 -10 -4 -10 -6 0 -11 5 -11 10 0
6 2 10 4 10 3 0 8 -4 11 -10z m-1465 -30 c0 -5 -5 -10 -11 -10 -5 0 -7 5 -4
10 3 6 8 10 11 10 2 0 4 -4 4 -10z m1660 -10 c-14 -10 -27 -16 -30 -13 -6 6
30 33 44 33 6 0 0 -9 -14 -20z m-2192 -56 c-4 -20 42 -30 53 -12 5 8 14 5 29
-13 12 -13 19 -18 15 -11 -4 8 2 12 19 12 15 0 25 -5 24 -12 -2 -7 7 -14 18
-16 18 -3 21 1 17 22 -3 15 -10 26 -15 26 -5 0 -7 4 -4 9 4 5 22 5 43 -1 21
-6 50 -11 65 -11 18 0 30 -8 38 -26 10 -23 13 -24 21 -8 6 10 15 15 20 11 6
-3 5 -12 -3 -21 -11 -14 -10 -15 11 -8 20 6 23 4 18 -9 -7 -18 13 -22 30 -5
13 13 33 4 33 -17 0 -8 9 -14 20 -14 20 0 26 -11 13 -23 -3 -4 -17 0 -30 8
-25 17 -26 16 -17 -9 5 -12 20 -16 61 -16 34 0 52 -4 48 -10 -4 -6 -12 -10
-18 -9 -41 5 -63 -2 -64 -21 -2 -22 9 -25 38 -10 15 9 19 7 19 -6 0 -12 6 -15
26 -10 18 5 24 3 19 -5 -4 -6 -20 -9 -36 -7 l-29 5 25 -27 c14 -14 22 -30 18
-34 -4 -4 -1 -11 6 -16 22 -13 21 -60 -1 -60 -10 0 -21 -7 -25 -16 -3 -8 -12
-13 -20 -10 -7 3 -16 -1 -19 -9 -4 -8 -12 -15 -20 -15 -8 0 -14 -4 -14 -10 0
-5 -7 -10 -15 -10 -8 0 -15 5 -15 10 0 16 -42 12 -62 -7 -16 -14 -18 -14 -18
-1 0 9 -15 21 -32 28 -18 8 -41 20 -50 28 -9 8 -21 11 -26 8 -19 -11 -81 17
-84 38 -2 17 -9 21 -33 19 -16 -1 -24 0 -17 3 13 6 17 34 4 34 -4 0 -13 -5
-20 -12 -8 -8 -18 -9 -34 -1 -13 6 -40 19 -61 28 -33 14 -37 19 -25 33 11 13
11 15 -4 9 -14 -5 -20 2 -28 33 -6 24 -17 40 -25 40 -8 0 -15 7 -15 15 0 8 -4
15 -10 15 -5 0 -10 7 -10 15 0 17 16 20 25 5 4 -6 11 -8 16 -4 6 4 6 11 -1 19
-14 16 1 27 20 15 9 -5 19 -5 27 2 9 7 13 7 13 0 0 -6 7 -9 15 -6 9 4 15 19
15 40 0 19 5 34 10 34 6 0 10 -7 8 -16z m2092 -20 c0 -8 -5 -12 -10 -9 -6 4
-8 11 -5 16 9 14 15 11 15 -7z m-10 -63 c0 -6 -4 -13 -10 -16 -5 -3 -10 1 -10
9 0 9 5 16 10 16 6 0 10 -4 10 -9z m-2430 -16 c7 -8 8 -15 2 -15 -5 0 -15 7
-22 15 -7 8 -8 15 -2 15 5 0 15 -7 22 -15z m2525 5 c-3 -5 -13 -10 -21 -10 -8
0 -14 5 -14 10 0 6 9 10 21 10 11 0 17 -4 14 -10z m-865 -26 c0 -2 -7 -4 -15
-4 -8 0 -15 4 -15 10 0 5 7 7 15 4 8 -4 15 -8 15 -10z m-1456 -9 c3 -8 1 -15
-4 -15 -6 0 -10 7 -10 15 0 8 2 15 4 15 2 0 6 -7 10 -15z m2380 -20 c-4 -8
-10 -12 -15 -9 -14 8 -10 24 6 24 9 0 12 -6 9 -15z m-844 -15 c0 -5 -4 -10
-10 -10 -5 0 -10 5 -10 10 0 6 5 10 10 10 6 0 10 -4 10 -10z m-1680 -21 c0
-14 -17 -10 -23 5 -4 10 -1 13 9 9 7 -3 14 -9 14 -14z m60 -70 c0 -6 -4 -7
-10 -4 -5 3 -10 11 -10 16 0 6 5 7 10 4 6 -3 10 -11 10 -16z m2560 11 c0 -5
-7 -10 -15 -10 -8 0 -15 5 -15 10 0 6 7 10 15 10 8 0 15 -4 15 -10z m-1759
-17 c0 -15 2 -15 9 2 7 19 8 19 15 1 11 -25 -15 -40 -32 -18 -15 21 -16 32 -3
32 6 0 10 -8 11 -17z m-721 -63 c8 -5 11 -12 7 -16 -4 -4 -15 0 -24 9 -18 18
-8 23 17 7z m1820 -20 c0 -11 -4 -20 -10 -20 -5 0 -10 9 -10 20 0 11 5 20 10
20 6 0 10 -9 10 -20z m-90 -65 c-7 -8 -20 -15 -29 -15 -13 1 -13 3 3 15 26 19
42 19 26 0z m-90 -54 c0 -11 -39 -25 -47 -18 -3 3 -2 10 2 16 8 13 45 15 45 2z
m-1310 -41 c8 -5 12 -12 9 -15 -8 -8 -39 5 -39 16 0 11 11 11 30 -1z m130 -30
c0 -5 -6 -10 -14 -10 -8 0 -18 5 -21 10 -3 6 3 10 14 10 12 0 21 -4 21 -10z
m107 -26 c-9 -9 -28 6 -21 18 4 6 10 6 17 -1 6 -6 8 -13 4 -17z m680 0 c-3 -3
-12 -4 -19 -1 -8 3 -5 6 6 6 11 1 17 -2 13 -5z m-1471 -881 c-10 -10 -19 5
-10 18 6 11 8 11 12 0 2 -7 1 -15 -2 -18z"/>
<path d="M4638 10053 c7 -3 16 -2 19 1 4 3 -2 6 -13 5 -11 0 -14 -3 -6 -6z"/>
<path d="M4608 10023 c7 -3 16 -2 19 1 4 3 -2 6 -13 5 -11 0 -14 -3 -6 -6z"/>
<path d="M4428 9933 c6 -2 18 -2 25 0 6 3 1 5 -13 5 -14 0 -19 -2 -12 -5z"/>
<path d="M7567 9450 c-3 -13 -14 -20 -30 -20 -35 0 -44 -18 -15 -29 19 -7 29
-3 56 22 37 35 40 47 13 47 -10 0 -21 -9 -24 -20z"/>
<path d="M7300 9310 c0 -5 5 -10 11 -10 5 0 7 5 4 10 -3 6 -8 10 -11 10 -2 0
-4 -4 -4 -10z"/>
<path d="M7120 9230 c0 -13 11 -13 30 0 12 8 11 10 -7 10 -13 0 -23 -4 -23
-10z"/>
<path d="M7190 9216 c0 -9 7 -16 16 -16 9 0 14 5 12 12 -6 18 -28 21 -28 4z"/>
<path d="M7147 9213 c-12 -11 -8 -40 7 -52 12 -10 14 -6 13 24 -1 34 -7 42
-20 28z"/>
<path d="M7095 9190 c-3 -5 1 -10 9 -10 8 0 18 5 21 10 3 6 -1 10 -9 10 -8 0
-18 -4 -21 -10z"/>
<path d="M7190 9164 c0 -8 5 -12 10 -9 6 3 10 10 10 16 0 5 -4 9 -10 9 -5 0
-10 -7 -10 -16z"/>
<path d="M3710 9140 c0 -5 5 -10 10 -10 6 0 10 5 10 10 0 6 -4 10 -10 10 -5 0
-10 -4 -10 -10z"/>
<path d="M6918 9143 c7 -3 16 -2 19 1 4 3 -2 6 -13 5 -11 0 -14 -3 -6 -6z"/>
<path d="M7080 9116 c0 -9 5 -16 10 -16 6 0 10 4 10 9 0 6 -4 13 -10 16 -5 3
-10 -1 -10 -9z"/>
<path d="M7185 9120 c-3 -5 -1 -10 4 -10 6 0 11 5 11 10 0 6 -2 10 -4 10 -3 0
-8 -4 -11 -10z"/>
<path d="M7270 8894 c0 -8 5 -12 10 -9 6 4 8 11 5 16 -9 14 -15 11 -15 -7z"/>
<path d="M4730 8360 c-12 -8 -9 -10 13 -10 15 0 27 5 27 10 0 13 -20 13 -40 0z"/>
<path d="M5080 8100 c0 -5 7 -10 15 -10 8 0 15 5 15 10 0 6 -7 10 -15 10 -8 0
-15 -4 -15 -10z"/>
<path d="M3666 7998 c-24 -33 -19 -45 7 -20 13 12 27 19 32 15 4 -5 6 -2 3 6
-7 24 -25 24 -42 -1z"/>
<path d="M4580 7994 c0 -8 5 -12 10 -9 6 3 10 10 10 16 0 5 -4 9 -10 9 -5 0
-10 -7 -10 -16z"/>
<path d="M4435 7920 c-3 -5 1 -10 10 -10 9 0 13 5 10 10 -3 6 -8 10 -10 10 -2
0 -7 -4 -10 -10z"/>
<path d="M4290 7890 c0 -5 5 -10 10 -10 6 0 10 5 10 10 0 6 -4 10 -10 10 -5 0
-10 -4 -10 -10z"/>
<path d="M4445 7880 c-3 -5 -1 -10 4 -10 6 0 11 5 11 10 0 6 -2 10 -4 10 -3 0
-8 -4 -11 -10z"/>
<path d="M4420 7840 c0 -5 5 -10 10 -10 6 0 10 5 10 10 0 6 -4 10 -10 10 -5 0
-10 -4 -10 -10z"/>
<path d="M5390 7820 c0 -5 5 -10 11 -10 5 0 7 5 4 10 -3 6 -8 10 -11 10 -2 0
-4 -4 -4 -10z"/>
<path d="M5045 7401 c-6 -11 9 -23 19 -14 9 9 7 23 -3 23 -6 0 -12 -4 -16 -9z"/>
<path d="M5188 7377 c-16 -6 -28 -16 -28 -23 0 -7 -12 -11 -27 -10 -33 1 -44
-17 -13 -22 31 -5 99 30 100 51 0 9 -1 17 -2 16 -2 -1 -15 -6 -30 -12z"/>
<path d="M6695 8360 c-3 -5 -1 -10 4 -10 6 0 11 5 11 10 0 6 -2 10 -4 10 -3 0
-8 -4 -11 -10z"/>
<path d="M7715 8240 c-3 -5 -1 -10 4 -10 6 0 11 5 11 10 0 6 -2 10 -4 10 -3 0
-8 -4 -11 -10z"/>
<path d="M7580 6956 c0 -8 5 -18 10 -21 6 -3 10 3 10 14 0 12 -4 21 -10 21 -5
0 -10 -6 -10 -14z"/>
<path d="M7247 6894 c-11 -11 3 -24 24 -24 11 0 18 4 15 9 -4 5 0 12 6 14 7 3
1 6 -13 6 -14 1 -29 -2 -32 -5z"/>
<path d="M7890 6730 c0 -6 7 -10 15 -10 8 0 15 2 15 4 0 2 -7 6 -15 10 -8 3
-15 1 -15 -4z"/>
<path d="M7965 6670 c3 -5 8 -10 11 -10 2 0 4 5 4 10 0 6 -5 10 -11 10 -5 0
-7 -4 -4 -10z"/>
<path d="M7045 6570 c-3 -5 -1 -10 4 -10 6 0 11 5 11 10 0 6 -2 10 -4 10 -3 0
-8 -4 -11 -10z"/>
<path d="M7976 6248 c-12 -37 -13 -58 -4 -58 5 0 8 -8 6 -17 -3 -21 9 -43 23
-43 6 0 7 5 4 10 -3 6 -1 10 4 10 6 0 11 7 11 15 0 8 6 15 13 15 8 0 7 3 -3 9
-8 6 -14 22 -15 38 0 29 -31 46 -39 21z"/>
<path d="M7602 6120 c-10 -17 -10 -21 3 -26 10 -4 13 -14 9 -30 -6 -22 -4 -23
25 -18 19 4 31 2 31 -4 0 -6 -12 -13 -27 -15 -16 -2 -7 -4 20 -3 36 0 46 4 42
14 -3 8 -5 16 -5 18 0 2 -6 4 -13 4 -14 0 -62 47 -68 68 -3 8 -8 5 -17 -8z"/>
<path d="M7127 6040 c-9 -11 -17 -26 -17 -33 0 -21 34 -64 48 -60 7 3 19 0 26
-6 10 -8 16 -8 25 2 6 8 9 16 6 18 -2 3 0 21 4 42 6 22 5 35 -1 31 -5 -3 -16
0 -25 8 -12 9 -15 9 -9 1 4 -7 3 -13 -2 -13 -6 0 -12 7 -16 15 -7 20 -18 19
-39 -5z"/>
<path d="M7508 6011 c3 -19 11 -31 25 -35 33 -8 38 3 15 35 -28 38 -46 38 -40
0z"/>
<path d="M7524 5839 c-3 -6 -1 -16 5 -22 8 -8 11 -5 11 11 0 24 -5 28 -16 11z"/>
<path d="M7493 5783 c9 -2 25 -2 35 0 9 3 1 5 -18 5 -19 0 -27 -2 -17 -5z"/>
<path d="M4885 1559 c-10 -15 -2 -19 23 -12 12 3 19 9 16 14 -7 12 -31 11 -39
-2z"/>
<path d="M4650 1550 c0 -5 7 -10 16 -10 8 0 12 5 9 10 -3 6 -10 10 -16 10 -5
0 -9 -4 -9 -10z"/>
<path d="M4950 1530 c0 -5 5 -10 11 -10 5 0 7 5 4 10 -3 6 -8 10 -11 10 -2 0
-4 -4 -4 -10z"/>
<path d="M3011 7608 c4 -29 10 -60 13 -68 3 -8 7 -45 10 -81 4 -59 17 -99 62
-194 8 -16 17 -46 21 -65 3 -19 14 -50 23 -67 l17 -33 7 38 c14 90 8 125 -44
223 -27 54 -50 112 -52 132 -1 20 -6 37 -10 37 -4 0 -8 10 -8 23 0 21 -35 107
-43 107 -2 0 0 -24 4 -52z"/>
<path d="M5765 7610 c-3 -5 -1 -10 4 -10 6 0 11 5 11 10 0 6 -2 10 -4 10 -3 0
-8 -4 -11 -10z"/>
<path d="M3398 6863 c-2 -65 -3 -87 -6 -175 -1 -26 -7 -38 -16 -38 -8 0 -21
-8 -28 -18 -7 -10 -21 -21 -30 -25 -24 -9 -23 -29 2 -45 16 -9 26 -10 42 -1
16 9 22 8 29 -2 13 -21 11 -45 -6 -59 -18 -15 -20 -41 -3 -37 7 1 14 -9 16
-23 2 -14 8 -30 12 -35 5 -6 10 -42 11 -80 1 -39 8 -119 16 -180 8 -60 16
-126 17 -145 1 -19 5 -40 8 -45 7 -11 17 -61 23 -115 2 -19 9 -55 15 -80 6
-25 13 -63 17 -85 3 -22 9 -45 14 -51 5 -5 11 -30 14 -55 12 -101 18 -129 27
-129 6 0 8 -14 4 -34 -7 -36 2 -50 22 -37 10 6 10 15 2 36 -6 16 -9 34 -6 41
3 7 0 15 -7 18 -9 5 -9 7 1 12 14 7 16 34 2 34 -5 0 -7 6 -4 14 3 8 1 17 -5
21 -6 3 -11 16 -11 28 0 12 -7 34 -14 49 -8 16 -15 36 -15 45 0 10 -3 46 -7
80 -4 34 -3 70 1 80 15 33 0 97 -21 89 -11 -4 -13 0 -8 20 6 23 4 25 -15 19
-22 -7 -28 4 -11 21 7 7 8 25 1 55 -20 91 -22 106 -26 194 -2 50 -8 110 -14
135 -15 61 -25 254 -23 428 2 91 -1 142 -8 142 -6 0 -11 -30 -12 -67z"/>
<path d="M5247 6421 c-50 -32 -84 -106 -71 -155 10 -39 24 -31 24 14 0 47 27
108 51 115 9 3 19 15 22 25 3 11 4 20 4 20 -1 0 -15 -8 -30 -19z"/>
<path d="M5955 6411 c-3 -5 -1 -12 5 -16 5 -3 10 1 10 9 0 18 -6 21 -15 7z"/>
<path d="M5270 6140 c6 -11 22 -27 36 -36 23 -16 45 -17 157 -13 l47 2 -28 18
c-24 14 -38 15 -76 8 -48 -9 -105 5 -120 30 -13 20 -27 12 -16 -9z"/>
<path d="M3490 6143 c1 -14 27 -43 33 -37 7 7 -14 44 -25 44 -5 0 -8 -3 -8 -7z"/>
<path d="M5530 6070 c0 -5 5 -10 11 -10 6 0 8 -9 4 -21 -6 -16 -3 -20 11 -17
27 5 27 24 -1 42 -14 9 -25 12 -25 6z"/>
<path d="M5464 5915 c19 -14 19 -15 -6 -15 -14 0 -41 -6 -59 -14 -28 -12 -31
-16 -16 -21 9 -4 27 -5 39 -2 16 4 18 3 9 -6 -6 -6 -11 -19 -11 -29 0 -18 -24
-24 -77 -19 -13 1 -23 -3 -23 -8 0 -5 -3 -17 -7 -26 -5 -14 -2 -16 18 -10 21
7 22 6 10 -9 -8 -10 -21 -14 -32 -11 -23 8 -82 -22 -73 -36 4 -7 -2 -9 -17 -5
-24 6 -24 6 -2 -5 l22 -12 -27 -33 c-15 -19 -33 -34 -40 -34 -7 0 -10 -5 -7
-10 3 -6 16 -8 29 -4 20 5 22 2 18 -30 -3 -23 -18 -51 -43 -80 -21 -24 -39
-51 -39 -60 0 -8 -12 -27 -27 -41 -16 -14 -21 -23 -12 -20 19 7 129 109 129
119 0 4 -10 -3 -22 -14 -29 -27 -38 -6 -11 22 15 14 37 21 82 24 58 3 61 2 51
-16 -13 -24 -59 -60 -76 -60 -8 0 -14 -8 -14 -18 0 -10 -5 -23 -12 -30 -15
-15 0 -16 36 -2 16 6 26 17 26 30 0 11 1 20 3 20 1 0 16 4 33 9 l32 9 -2 -44
c-1 -43 9 -58 20 -29 4 8 13 15 20 15 8 0 20 11 26 25 15 33 34 32 42 -1 l7
-27 15 22 c11 15 22 20 35 16 14 -5 20 0 25 19 3 14 9 26 13 27 3 0 18 3 34 5
28 5 31 0 27 -45 -1 -17 2 -21 12 -16 7 5 0 -6 -16 -23 -34 -37 -22 -43 19
-10 l28 21 -13 -22 c-10 -19 -9 -23 2 -19 7 3 14 16 16 31 3 26 32 61 32 38 0
-6 -4 -11 -10 -11 -5 0 -10 -4 -10 -10 0 -5 11 -10 25 -10 30 0 32 -11 5 -30
-25 -18 -26 -33 -2 -26 13 5 22 -1 30 -19 6 -14 18 -25 27 -25 8 0 15 -7 15
-15 0 -9 9 -15 24 -15 14 0 27 -4 30 -9 5 -8 83 -7 174 3 19 2 39 12 48 24 13
19 12 21 -6 27 -30 10 -43 40 -28 65 7 11 17 20 22 20 4 0 3 7 -4 15 -7 9 -21
13 -31 10 -16 -5 -19 -1 -21 32 0 21 -1 44 -1 51 1 18 -15 15 -40 -9 l-22 -20
-23 29 c-26 34 -63 33 -80 -1 -10 -21 -11 -21 -11 -2 -1 25 9 40 31 48 12 4
16 17 15 49 -2 44 -18 55 -27 18 -8 -33 -25 -28 -28 8 -3 33 -4 33 -23 16 -10
-9 -19 -13 -19 -9 0 4 -9 0 -20 -10 -11 -10 -20 -15 -20 -10 0 4 -7 2 -15 -5
-22 -18 -27 -8 -15 25 10 26 9 27 -7 14 -10 -8 -22 -18 -26 -24 -5 -5 -5 0 -2
13 6 19 3 23 -12 20 -12 -2 -19 4 -21 21 -2 13 1 21 6 17 5 -3 16 2 23 11 12
14 11 15 -7 9 -15 -5 -24 -2 -28 10 -6 15 -8 15 -31 0 -13 -9 -30 -16 -37 -16
-6 0 -25 -12 -41 -27 l-30 -28 17 27 c17 25 35 38 65 44 22 4 42 44 23 44 -5
0 -9 13 -9 29 0 40 -59 109 -93 110 -24 0 -24 0 -6 -14z m-189 -205 c3 -5 -1
-10 -9 -10 -9 0 -16 5 -16 10 0 6 4 10 9 10 6 0 13 -4 16 -10z m241 -57 c-11
-11 -19 6 -11 24 8 17 8 17 12 0 3 -10 2 -21 -1 -24z m34 23 c0 -3 -4 -8 -10
-11 -5 -3 -10 -1 -10 4 0 6 5 11 10 11 6 0 10 -2 10 -4z m90 -82 c0 -11 -15
-35 -34 -53 -31 -30 -34 -31 -40 -13 -4 10 -4 26 0 35 4 12 1 14 -15 10 -31
-8 -26 3 9 21 26 12 30 12 30 0 0 -8 5 -14 11 -14 6 0 8 9 4 21 -5 13 -2 25 6
30 16 9 29 -7 29 -37z m-296 17 c3 -5 -6 -11 -19 -14 -14 -2 -28 0 -32 6 -3 5
-2 7 3 4 6 -3 16 -2 24 4 18 11 18 11 24 0z m-84 -11 c-8 -5 -19 -10 -25 -10
-5 0 -3 5 5 10 8 5 20 10 25 10 6 0 3 -5 -5 -10z m10 -35 c0 -8 -4 -15 -9 -15
-5 0 -18 -3 -28 -7 -17 -6 -17 -5 1 15 22 26 36 28 36 7z m37 -11 c-3 -3 -12
-4 -19 -1 -8 3 -5 6 6 6 11 1 17 -2 13 -5z m349 -32 c-18 -16 -18 -16 -6 6 6
13 14 21 18 18 3 -4 -2 -14 -12 -24z m128 -55 c-3 -9 -12 -17 -20 -17 -17 0
-17 5 -2 30 14 22 32 12 22 -13z m-128 -14 c-10 -10 -19 5 -10 18 6 11 8 11
12 0 2 -7 1 -15 -2 -18z m254 8 c0 -24 -18 -37 -32 -23 -8 8 -7 16 2 27 17 21
30 19 30 -4z"/>
<path d="M5650 5764 c0 -8 5 -12 10 -9 6 4 8 11 5 16 -9 14 -15 11 -15 -7z"/>
<path d="M3550 5720 c0 -29 4 -40 15 -40 13 0 14 4 4 21 -6 12 -9 30 -6 40 3
10 1 19 -4 19 -5 0 -9 -18 -9 -40z"/>
<path d="M5070 5648 c-16 -7 -20 -12 -12 -15 8 -3 21 2 30 11 19 18 17 19 -18
4z"/>
<path d="M5990 5646 c0 -9 5 -16 10 -16 6 0 10 4 10 9 0 6 -4 13 -10 16 -5 3
-10 -1 -10 -9z"/>
<path d="M3697 5616 c-4 -10 -5 -21 -2 -24 9 -9 17 6 13 25 -3 17 -4 17 -11
-1z"/>
<path d="M4782 5600 c-29 -28 -28 -34 3 -14 14 9 25 20 25 25 0 13 -4 11 -28
-11z"/>
<path d="M4920 5570 c0 -5 5 -10 10 -10 6 0 10 5 10 10 0 6 -4 10 -10 10 -5 0
-10 -4 -10 -10z"/>
<path d="M5104 5545 c-18 -14 -17 -15 11 -9 37 8 57 24 29 24 -11 0 -29 -7
-40 -15z"/>
<path d="M5905 5540 c-3 -5 -1 -10 4 -10 6 0 11 5 11 10 0 6 -2 10 -4 10 -3 0
-8 -4 -11 -10z"/>
<path d="M4903 5516 c-13 -6 -23 -14 -23 -19 0 -5 10 -5 23 -2 17 5 19 4 7 -4
-8 -6 -23 -11 -32 -11 -10 0 -18 -4 -18 -10 0 -17 46 -11 73 10 14 11 30 20
35 20 5 0 12 7 16 15 3 9 0 15 -8 15 -8 0 -17 -6 -19 -12 -4 -10 -6 -10 -6 0
-1 14 -17 14 -48 -2z"/>
<path d="M5064 5498 c-11 -17 4 -20 32 -5 l28 15 -27 0 c-15 0 -30 -5 -33 -10z"/>
<path d="M5023 5460 c-23 -10 -32 -30 -12 -30 17 0 49 20 49 30 0 12 -8 12
-37 0z"/>
<path d="M4742 5435 c-11 -24 -10 -25 8 -15 11 6 20 17 20 25 0 23 -16 17 -28
-10z"/>
<path d="M4840 5440 c0 -5 5 -10 10 -10 6 0 10 5 10 10 0 6 -4 10 -10 10 -5 0
-10 -4 -10 -10z"/>
<path d="M4960 5420 c-13 -8 -12 -10 3 -10 11 0 17 -8 17 -22 0 -17 3 -19 9
-9 9 14 3 51 -8 51 -3 0 -13 -5 -21 -10z"/>
<path d="M5055 5419 c-4 -6 -5 -12 -2 -15 2 -3 7 2 10 11 7 17 1 20 -8 4z"/>
<path d="M5497 5398 c-9 -21 -21 -38 -26 -38 -6 0 -11 -7 -11 -15 0 -10 12 -2
31 19 17 20 29 43 27 53 -3 13 -9 8 -21 -19z"/>
<path d="M3580 5325 c0 -8 5 -15 10 -15 6 0 10 7 10 15 0 8 -4 15 -10 15 -5 0
-10 -7 -10 -15z"/>
<path d="M3595 5258 c4 -13 9 -35 12 -51 3 -15 9 -30 14 -33 5 -3 9 -13 9 -23
0 -21 114 -250 150 -301 25 -34 50 -50 50 -30 0 6 -4 10 -10 10 -5 0 -10 9
-10 20 0 10 -6 23 -13 27 -8 4 -27 31 -42 58 -16 28 -32 52 -35 55 -9 8 -47
84 -55 108 -5 16 -2 22 9 22 9 0 16 5 16 10 0 6 -8 10 -17 8 -13 -2 -17 3 -15
18 1 12 -4 27 -13 34 -8 7 -15 18 -15 26 0 21 -22 64 -33 64 -5 0 -6 -10 -2
-22z"/>
<path d="M7007 5240 c-3 -11 -1 -23 4 -26 5 -3 9 6 9 20 0 31 -6 34 -13 6z"/>
<path d="M6824 5205 c-4 -14 -4 -29 0 -32 3 -4 6 3 6 15 0 13 6 22 15 22 8 0
15 5 15 10 0 21 -30 9 -36 -15z"/>
<path d="M7057 5206 c3 -13 0 -33 -6 -45 -9 -16 -9 -21 1 -21 8 0 14 17 16 45
1 25 -1 45 -6 45 -5 0 -7 -11 -5 -24z"/>
<path d="M6920 5160 c0 -5 7 -10 16 -10 14 0 14 -3 3 -16 -7 -8 -21 -13 -31
-11 -23 6 -44 -28 -29 -47 8 -10 -3 -16 -52 -26 -34 -7 -82 -14 -107 -15 -25
-1 -56 -6 -70 -12 -14 -6 -59 -9 -100 -7 -41 3 -84 4 -95 3 -11 -1 -94 -2
-185 -1 -91 0 -244 1 -340 0 -645 -2 -686 0 -814 46 -55 20 -101 36 -103 36
-2 0 -3 -7 -3 -15 0 -8 6 -15 14 -15 8 0 25 -12 38 -27 37 -44 70 -57 123 -49
42 7 47 5 52 -13 7 -27 43 -28 43 -2 0 11 5 23 10 26 6 3 10 3 10 -2 0 -4 19
-9 43 -10 86 -4 140 -17 200 -50 21 -11 32 -12 40 -4 16 16 27 14 28 -6 0 -10
3 -13 5 -7 6 15 43 6 68 -15 11 -9 16 -10 12 -4 -5 10 1 11 24 7 19 -4 30 -2
30 5 0 26 20 8 26 -23 l6 -35 78 -3 c62 -2 76 0 68 10 -7 8 -7 12 0 12 16 0
41 -40 35 -56 -3 -7 2 -20 10 -29 8 -8 17 -19 19 -25 5 -17 38 0 38 19 0 13
-2 13 -9 2 -6 -10 -10 -10 -16 -1 -4 6 1 18 11 25 23 17 34 19 34 5 0 -5 5
-10 10 -10 6 0 10 11 10 24 0 14 7 32 16 41 15 14 19 14 48 -4 17 -11 35 -29
41 -40 5 -12 15 -21 22 -21 20 0 15 -25 -8 -46 -22 -19 -22 -19 -14 6 7 23 7
23 -10 7 -17 -17 -17 -19 1 -33 14 -11 15 -17 7 -20 -21 -9 -15 -34 7 -34 11
0 20 -3 20 -8 0 -15 42 -34 53 -23 12 12 91 5 124 -11 17 -8 28 -7 47 5 13 9
41 17 63 18 21 1 43 5 48 8 6 3 30 6 55 6 37 0 44 3 42 18 -2 9 2 17 8 17 5 0
10 -11 10 -25 0 -14 3 -25 8 -25 4 0 8 -20 10 -45 2 -33 -1 -45 -12 -45 -20 0
-27 -26 -11 -40 9 -8 16 -7 27 3 15 15 35 12 60 -11 16 -13 18 -13 24 3 4 10
1 29 -7 43 -17 30 -46 44 -36 18 5 -12 3 -16 -5 -14 -15 5 -29 56 -17 63 17
11 130 -77 128 -100 0 -5 -3 -4 -6 3 -2 6 -9 10 -14 7 -5 -4 -3 -12 3 -19 10
-11 15 -11 26 1 18 18 47 17 66 -3 9 -8 16 -11 16 -5 0 5 11 22 24 36 14 15
26 39 28 53 2 15 9 26 16 24 8 -1 12 13 12 48 0 42 4 52 25 66 18 12 23 20 15
29 -7 9 -5 19 9 36 26 34 42 94 28 108 -8 8 -6 19 6 41 10 17 13 30 8 30 -6 0
-10 8 -9 18 5 58 -3 91 -22 97 -12 4 -27 1 -35 -5 -17 -14 -45 -6 -45 12 0 9
3 8 10 -2 6 -9 10 -10 10 -3 0 12 -47 53 -61 53 -5 0 -9 -4 -9 -10z m40 -70
c0 -5 -5 -10 -11 -10 -5 0 -7 5 -4 10 3 6 8 10 11 10 2 0 4 -4 4 -10z m-733
-256 c-3 -3 -12 -4 -19 -1 -8 3 -5 6 6 6 11 1 17 -2 13 -5z m448 -123 c3 -5 1
-12 -5 -16 -5 -3 -10 1 -10 9 0 18 6 21 15 7z m209 -47 c28 -11 18 -27 -11
-19 -37 9 -53 25 -26 25 12 0 28 -3 37 -6z m-66 -40 c-10 -10 -28 6 -28 24 0
15 1 15 17 -1 9 -9 14 -19 11 -23z m49 -40 c-3 -3 -12 -4 -19 -1 -8 3 -5 6 6
6 11 1 17 -2 13 -5z"/>
<path d="M6778 5108 c-24 -23 -33 -38 -25 -41 6 -3 1 -6 -13 -7 -22 0 -23 -2
-8 -11 12 -7 27 -5 50 4 18 8 38 12 45 10 14 -5 55 56 47 68 -2 5 -11 6 -19 2
-9 -3 -21 -1 -28 3 -8 6 -24 -3 -49 -28z"/>
<path d="M3870 5111 c0 -5 5 -13 10 -16 6 -3 10 -2 10 4 0 5 -4 13 -10 16 -5
3 -10 2 -10 -4z"/>
<path d="M3745 5040 c3 -5 8 -10 11 -10 2 0 4 5 4 10 0 6 -5 10 -11 10 -5 0
-7 -4 -4 -10z"/>
<path d="M5190 4980 c0 -5 5 -10 10 -10 6 0 10 5 10 10 0 6 -4 10 -10 10 -5 0
-10 -4 -10 -10z"/>
<path d="M3870 4797 c0 -13 9 -26 22 -32 27 -12 37 -45 14 -45 -8 0 -20 8 -26
18 -8 13 -9 11 -3 -13 8 -35 56 -103 138 -194 73 -80 133 -158 208 -270 32
-47 57 -78 57 -71 0 9 6 8 20 -5 11 -10 20 -23 20 -28 0 -5 8 -16 18 -23 9 -7
17 -18 17 -25 0 -7 14 -19 32 -28 18 -9 37 -29 44 -44 6 -15 21 -32 31 -38 11
-6 26 -26 34 -45 8 -19 19 -32 24 -29 6 4 14 -4 19 -17 7 -17 10 -19 10 -5 1
9 3 17 5 17 9 0 96 -90 96 -99 0 -6 10 -13 23 -16 12 -4 35 -24 50 -46 16 -21
35 -39 42 -39 8 0 19 -9 25 -20 6 -12 19 -19 33 -17 16 1 23 -4 25 -21 2 -13
15 -28 28 -34 15 -7 23 -17 20 -25 -3 -8 -1 -11 4 -8 6 3 10 -1 10 -9 0 -9 6
-16 13 -16 7 0 33 -18 57 -40 24 -22 48 -40 52 -40 4 0 8 -6 8 -13 0 -7 11
-28 25 -47 14 -19 25 -27 25 -19 0 8 -5 20 -12 27 -6 6 -8 15 -4 19 4 5 19 -5
34 -22 14 -16 29 -29 34 -27 5 1 24 -9 42 -23 18 -14 38 -25 44 -25 7 0 12
-12 12 -27 0 -22 2 -25 10 -13 7 12 12 12 22 2 6 -6 22 -12 35 -12 13 0 23 -5
23 -10 0 -7 6 -7 20 0 14 8 26 8 41 0 11 -7 43 -18 70 -26 27 -8 59 -25 70
-37 12 -12 18 -16 14 -8 -6 11 1 12 34 6 36 -6 40 -5 34 11 -7 18 -7 18 63 -2
15 -4 23 0 26 13 4 16 -1 18 -39 14 -24 -1 -49 2 -56 8 -10 8 -17 7 -25 -1 -9
-9 -12 -9 -12 0 0 7 -7 12 -15 12 -9 0 -12 6 -8 16 5 13 2 15 -16 9 -18 -5
-22 -3 -21 12 5 41 0 55 -15 49 -10 -4 -19 2 -25 18 -4 13 -15 26 -23 29 -11
4 -14 19 -13 49 2 41 -1 52 -24 98 -5 11 -10 34 -10 50 0 18 -4 29 -10 25 -5
-3 -10 -24 -10 -46 0 -21 -4 -39 -9 -39 -9 0 -23 -34 -25 -60 -1 -8 -6 -24
-13 -35 -10 -17 -15 -18 -33 -7 -12 7 -29 10 -39 7 -12 -3 -21 0 -25 10 -6 17
16 31 34 20 5 -3 10 -2 10 4 0 5 -4 11 -10 13 -5 2 -11 19 -12 38 -4 41 16 48
35 11 20 -41 33 -35 36 15 2 41 -2 51 -28 74 -16 16 -32 25 -35 22 -3 -3 -6 7
-6 22 0 15 -4 25 -9 22 -5 -3 -9 -22 -8 -41 1 -35 11 -46 20 -22 3 6 6 1 6
-13 0 -15 -9 -32 -24 -43 -23 -17 -25 -17 -35 2 -13 25 -13 57 1 82 6 11 10
54 10 95 0 54 3 74 13 74 7 0 20 8 29 18 19 20 23 52 7 52 -5 0 -10 -7 -10
-15 0 -13 -37 -41 -45 -33 -2 2 0 23 5 47 4 24 4 55 0 70 l-8 26 -1 -27 c-1
-15 -5 -30 -11 -33 -5 -3 -10 -19 -10 -35 0 -16 -5 -32 -11 -36 -8 -5 -10 0
-6 17 3 13 2 30 -2 37 -6 11 -13 8 -29 -12 -28 -37 -35 -32 -28 18 8 50 -8 71
-31 41 -7 -11 -13 -15 -13 -10 0 5 -6 0 -14 -11 -8 -10 -11 -23 -7 -27 5 -5 2
-25 -5 -45 -17 -49 -17 -71 1 -78 8 -4 15 -13 15 -20 0 -8 7 -17 15 -20 8 -4
15 -17 15 -31 0 -13 -4 -22 -9 -18 -5 3 -11 -5 -13 -17 -2 -13 -10 -24 -19
-26 -13 -2 -15 3 -12 22 4 18 -1 28 -20 41 -23 15 -25 21 -21 73 2 31 6 68 9
82 11 53 -26 64 -45 14 -5 -13 -16 -24 -25 -24 -22 0 -19 53 5 92 11 18 20 49
20 68 l0 35 -18 -23 c-10 -13 -21 -20 -24 -17 -4 4 11 24 33 46 21 21 39 44
39 49 0 24 -36 0 -63 -43 -10 -15 -22 -25 -27 -22 -6 4 -10 1 -10 -4 0 -6 -7
-11 -15 -11 -18 0 -18 4 -3 46 9 26 9 36 -2 48 -10 12 -16 14 -26 5 -11 -9
-14 -8 -14 3 0 22 12 29 27 17 10 -9 13 -8 13 4 0 8 -6 18 -12 21 -9 3 -8 8 5
16 18 11 24 50 8 50 -5 0 -7 9 -4 20 7 25 -15 27 -23 3 -12 -37 -28 -63 -33
-54 -3 5 -7 -23 -9 -62 -2 -67 -1 -70 14 -52 12 16 14 16 10 3 -15 -49 -18
-89 -6 -86 7 2 17 -14 24 -37 7 -24 21 -44 34 -51 19 -9 20 -13 8 -17 -20 -8
-21 -46 -1 -53 9 -4 15 -19 15 -40 0 -24 -4 -32 -14 -28 -21 8 -36 50 -36 100
0 28 -4 43 -10 39 -5 -3 -10 -26 -10 -50 0 -24 -5 -45 -10 -47 -19 -6 19 -68
42 -68 14 0 18 -5 14 -16 -3 -9 -6 -18 -6 -20 0 -2 -7 -4 -15 -4 -8 0 -15 5
-15 10 0 6 -7 10 -15 10 -8 0 -15 8 -15 18 0 10 -5 23 -11 29 -7 7 -8 22 -1
47 8 29 7 39 -5 51 -8 8 -10 15 -5 15 16 0 34 51 22 65 -6 7 -10 17 -9 21 6
32 -2 84 -12 78 -7 -4 -9 -21 -6 -40 6 -35 -8 -57 -16 -27 -4 15 -6 15 -12 -5
-6 -17 -13 -21 -27 -16 -16 5 -18 2 -11 -23 4 -15 7 -45 7 -65 1 -37 5 -41 36
-39 9 0 11 -2 3 -5 -7 -3 -10 -18 -8 -37 3 -18 2 -26 -1 -19 -5 10 -9 10 -20
1 -11 -9 -18 -6 -32 11 -15 18 -18 36 -15 85 3 53 0 64 -19 81 -21 19 -21 19
-16 -3 4 -13 2 -26 -3 -29 -5 -3 -9 -19 -9 -36 0 -31 0 -31 -19 -12 -16 16
-17 21 -5 34 14 16 9 60 -7 60 -5 0 -9 11 -9 25 0 18 5 25 20 25 19 0 20 1 4
25 -9 14 -14 31 -11 39 3 8 1 31 -5 52 -16 60 -27 20 -11 -42 13 -50 13 -58
-1 -73 -9 -10 -16 -25 -16 -35 0 -10 -5 -14 -11 -11 -6 4 -8 12 -6 19 12 32
-58 196 -84 196 -13 0 20 -86 41 -108 32 -34 16 -53 -38 -47 -39 5 -53 14 -99
60 -29 31 -53 57 -53 59 0 12 43 -10 55 -27 8 -12 18 -17 22 -13 5 4 -2 16
-14 26 -13 10 -23 22 -23 26 0 15 -53 54 -72 54 -10 0 -18 4 -18 9 0 5 -11 19
-25 32 -13 13 -25 31 -25 40 0 9 -10 20 -22 23 -23 6 -23 6 -3 22 16 12 17 16
6 23 -9 6 -12 19 -8 37 4 21 -1 32 -18 46 -13 10 -30 34 -37 54 -16 45 -44 43
-40 -4 l3 -32 -27 25 c-18 16 -24 30 -20 42 4 10 -2 36 -16 61 -12 24 -24 39
-26 33 -2 -6 -8 -8 -14 -5 -5 4 -2 -5 7 -20 16 -23 16 -26 1 -26 -20 0 -21
-19 -1 -26 18 -7 20 -37 3 -32 -7 3 -27 27 -45 54 -18 27 -37 54 -42 61 -14
15 -14 40 -1 48 9 6 -43 95 -55 95 -3 0 -5 -10 -5 -23z m270 -292 c0 -8 11
-17 25 -21 21 -5 23 -9 13 -27 -11 -21 -11 -21 -34 7 -25 28 -32 56 -14 56 6
0 10 -7 10 -15z m424 -537 c-8 -12 -44 21 -44 40 0 12 6 10 25 -8 13 -12 22
-27 19 -32z m199 -2 c6 -15 -1 -26 -15 -26 -4 0 -8 9 -8 20 0 23 15 27 23 6z
m397 -86 c0 -5 1 -13 3 -17 1 -3 -10 -7 -25 -7 -32 -2 -36 8 -10 23 22 13 32
14 32 1z m48 -75 c2 -26 -2 -53 -7 -58 -6 -6 -11 -19 -11 -30 0 -10 -5 -17
-12 -15 -8 3 -12 19 -10 41 2 24 -2 43 -13 53 -14 15 -14 18 7 39 32 32 43 26
46 -30z m-428 -31 c0 -8 -4 -12 -10 -9 -5 3 -10 10 -10 16 0 5 5 9 10 9 6 0
10 -7 10 -16z m160 -28 c0 -3 -4 -8 -10 -11 -5 -3 -10 -1 -10 4 0 6 5 11 10
11 6 0 10 -2 10 -4z m-44 -43 c-7 -7 -26 7 -26 19 0 6 6 6 15 -2 9 -7 13 -15
11 -17z m234 -52 c0 -10 -3 -11 -13 -2 -8 6 -16 8 -19 6 -3 -3 -3 6 0 20 4 24
5 24 18 8 7 -10 14 -24 14 -32z m-60 -6 c0 -8 -4 -15 -10 -15 -5 0 -10 7 -10
15 0 8 5 15 10 15 6 0 10 -7 10 -15z m44 -52 c5 -17 3 -29 -6 -34 -22 -14 -26
-10 -25 26 1 41 22 47 31 8z m-104 -24 c0 -6 -4 -7 -10 -4 -5 3 -10 11 -10 16
0 6 5 7 10 4 6 -3 10 -11 10 -16z m163 -57 c-3 -7 0 -18 5 -25 6 -7 9 -23 6
-34 l-6 -21 -21 21 c-13 13 -22 36 -23 64 l-3 43 23 -18 c13 -9 21 -23 19 -30z
m237 13 c0 -27 -1 -28 -24 -19 -12 5 -13 10 -5 25 14 27 29 24 29 -6z m10 -97
c0 -9 4 -19 9 -22 13 -9 1 -46 -15 -46 -8 0 -14 7 -14 15 0 8 -4 15 -9 15 -17
0 -32 60 -20 83 11 20 12 20 30 -4 10 -13 19 -32 19 -41z m-93 -4 c25 -25 26
-27 9 -40 -14 -10 -21 -10 -33 -1 -60 49 -67 67 -28 67 15 0 38 -12 52 -26z"/>
<path d="M6052 4755 c2 -22 7 -38 13 -35 12 6 8 51 -6 65 -7 7 -9 -3 -7 -30z"/>
<path d="M6045 4690 c-3 -5 3 -10 14 -10 12 0 21 5 21 10 0 6 -6 10 -14 10 -8
0 -18 -4 -21 -10z"/>
<path d="M7131 4620 c0 -8 4 -24 9 -35 5 -13 9 -14 9 -5 0 8 -4 24 -9 35 -5
13 -9 14 -9 5z"/>
<path d="M6569 4610 c-6 -34 -5 -57 3 -67 14 -17 28 -16 28 1 0 13 -29 76 -31
66z"/>
<path d="M6520 4560 c0 -5 5 -10 10 -10 6 0 10 5 10 10 0 6 -4 10 -10 10 -5 0
-10 -4 -10 -10z"/>
<path d="M6680 4520 c0 -5 5 -10 11 -10 5 0 7 5 4 10 -3 6 -8 10 -11 10 -2 0
-4 -4 -4 -10z"/>
<path d="M4467 4513 c-11 -10 -8 -53 3 -53 6 0 10 14 10 30 0 31 -2 35 -13 23z"/>
<path d="M6850 4510 c0 -5 5 -10 10 -10 6 0 10 5 10 10 0 6 -4 10 -10 10 -5 0
-10 -4 -10 -10z"/>
<path d="M6890 4496 c0 -8 5 -18 10 -21 6 -3 10 1 10 9 0 8 -4 18 -10 21 -5 3
-10 -1 -10 -9z"/>
<path d="M5923 4463 c-9 -14 -14 -15 -21 -5 -7 11 -11 10 -20 -1 -19 -22 -43
-87 -37 -97 4 -6 2 -10 -2 -10 -7 0 -9 -83 -3 -100 2 -6 20 56 24 84 1 10 9
24 18 30 19 14 29 64 14 71 -6 2 -1 2 12 -1 14 -3 24 0 28 10 9 25 0 38 -13
19z"/>
<path d="M5786 4419 c-14 -28 -21 -49 -16 -47 17 5 61 86 51 93 -5 3 -21 -18
-35 -46z"/>
<path d="M6016 4455 c-3 -8 -1 -15 4 -15 6 0 10 7 10 15 0 8 -2 15 -4 15 -2 0
-6 -7 -10 -15z"/>
<path d="M6116 4439 c-3 -17 -6 -39 -6 -48 1 -14 2 -14 14 2 7 9 18 17 25 17
6 0 11 5 11 11 0 6 -6 9 -13 6 -10 -4 -13 2 -9 19 2 13 0 24 -6 24 -5 0 -12
-14 -16 -31z"/>
<path d="M6327 4452 c-20 -4 -18 -23 3 -30 7 -3 10 0 6 7 -5 7 -1 9 8 5 9 -3
16 -1 16 4 0 14 -11 19 -33 14z"/>
<path d="M4300 4441 c0 -6 5 -13 10 -16 6 -3 10 1 10 9 0 9 -4 16 -10 16 -5 0
-10 -4 -10 -9z"/>
<path d="M6050 4440 c0 -5 -9 -10 -20 -10 -16 0 -20 -7 -20 -36 0 -49 15 -73
40 -67 16 4 20 0 21 -18 l0 -24 10 25 c11 27 -8 140 -23 140 -4 0 -8 -4 -8
-10z"/>
<path d="M6175 4431 c-3 -5 -1 -12 5 -16 5 -3 10 1 10 9 0 18 -6 21 -15 7z"/>
<path d="M6240 4429 c0 -17 45 -39 78 -39 21 0 23 2 11 16 -7 8 -21 13 -31 11
-10 -3 -16 -1 -12 4 3 5 1 9 -5 9 -5 0 -16 3 -25 6 -10 4 -16 1 -16 -7z"/>
<path d="M5970 4415 c0 -8 5 -15 10 -15 6 0 10 7 10 15 0 8 -4 15 -10 15 -5 0
-10 -7 -10 -15z"/>
<path d="M4416 4379 c4 -48 11 -60 23 -40 10 16 -1 73 -16 78 -8 3 -10 -10 -7
-38z"/>
<path d="M4588 4414 c-5 -4 -8 -16 -8 -28 0 -14 3 -17 11 -9 6 6 9 19 7 28 -1
9 -6 13 -10 9z"/>
<path d="M6971 4394 c0 -11 3 -14 6 -6 3 7 2 16 -1 19 -3 4 -6 -2 -5 -13z"/>
<path d="M6955 4360 c3 -5 8 -10 11 -10 2 0 4 5 4 10 0 6 -5 10 -11 10 -5 0
-7 -4 -4 -10z"/>
<path d="M4335 4350 c-3 -5 2 -16 11 -25 14 -13 19 -14 25 -3 5 7 9 16 9 19 0
10 -39 18 -45 9z"/>
<path d="M5977 4339 c4 -15 8 -17 14 -8 8 14 3 29 -11 29 -4 0 -6 -9 -3 -21z"/>
<path d="M4667 4331 c-4 -17 -3 -21 5 -13 5 5 8 16 6 23 -3 8 -7 3 -11 -10z"/>
<path d="M6885 4340 c3 -5 8 -10 11 -10 2 0 4 5 4 10 0 6 -5 10 -11 10 -5 0
-7 -4 -4 -10z"/>
<path d="M4286 4305 c4 -8 8 -15 10 -15 2 0 4 7 4 15 0 8 -4 15 -10 15 -5 0
-7 -7 -4 -15z"/>
<path d="M4456 4291 c-4 -6 -3 -19 3 -28 9 -17 10 -17 17 0 8 21 -10 45 -20
28z"/>
<path d="M4977 4260 c-14 -16 -33 -30 -41 -30 -9 0 -23 -12 -33 -27 -10 -16
-21 -31 -26 -34 -5 -4 -5 -9 0 -12 11 -7 117 90 126 116 9 24 2 21 -26 -13z"/>
<path d="M4641 4233 c-1 -24 4 -43 9 -43 12 0 12 24 0 60 -7 21 -8 19 -9 -17z"/>
<path d="M5830 4230 c0 -5 5 -10 10 -10 6 0 10 5 10 10 0 6 -4 10 -10 10 -5 0
-10 -4 -10 -10z"/>
<path d="M4976 4205 c-9 -26 -7 -32 5 -12 6 10 9 21 6 23 -2 3 -7 -2 -11 -11z"/>
<path d="M4746 4194 c-4 -9 -4 -19 -2 -21 8 -8 26 8 26 23 0 19 -16 18 -24 -2z"/>
<path d="M4660 4115 c0 -8 5 -15 10 -15 6 0 10 -9 10 -19 0 -12 9 -21 24 -25
26 -6 56 1 56 14 0 5 3 16 6 24 5 12 2 15 -10 10 -9 -3 -16 -12 -16 -20 0 -8
-9 -14 -20 -14 -18 0 -24 12 -23 48 1 6 -8 12 -18 12 -10 0 -19 -7 -19 -15z"/>
<path d="M6550 4029 c0 -19 -3 -45 -6 -59 -4 -19 -1 -16 10 8 15 33 16 65 3
78 -4 4 -7 -8 -7 -27z"/>
<path d="M6426 3965 c4 -8 10 -15 15 -15 5 0 9 7 9 15 0 8 -7 15 -15 15 -9 0
-12 -6 -9 -15z"/>
<path d="M6479 3966 c6 -7 8 -15 5 -19 -3 -3 -3 -15 1 -27 9 -28 17 -19 21 23
2 27 -1 33 -17 34 -16 2 -18 -1 -10 -11z"/>
<path d="M6400 3866 c0 -6 4 -17 9 -24 6 -10 10 -7 13 10 3 16 0 25 -9 25 -7
0 -13 -5 -13 -11z"/>
<path d="M5342 3850 c0 -14 2 -19 5 -12 2 6 2 18 0 25 -3 6 -5 1 -5 -13z"/>
<path d="M6475 3840 c4 -6 11 -8 16 -5 14 9 11 15 -7 15 -8 0 -12 -5 -9 -10z"/>
<path d="M6412 3784 c-8 -16 -18 -24 -27 -20 -18 6 -26 -6 -16 -23 11 -16 51
2 51 24 0 7 4 15 10 17 5 2 6 9 1 16 -5 9 -11 5 -19 -14z"/>
<path d="M4540 3739 c0 -5 5 -7 10 -4 6 3 10 8 10 11 0 2 -4 4 -10 4 -5 0 -10
-5 -10 -11z"/>
<path d="M5561 3734 c0 -11 3 -14 6 -6 3 7 2 16 -1 19 -3 4 -6 -2 -5 -13z"/>
<path d="M6442 3700 c-10 -17 -10 -21 3 -26 19 -8 22 -5 27 20 4 26 -15 30
-30 6z"/>
<path d="M6415 3660 c-9 -14 -7 -16 25 -24 17 -5 21 -4 11 2 -7 5 -17 15 -21
22 -6 9 -9 9 -15 0z"/>
<path d="M6491 3601 c-8 -6 -9 -11 -3 -15 6 -3 14 -1 17 5 9 14 2 20 -14 10z"/>
<path d="M6540 3581 c0 -11 -4 -21 -10 -21 -5 0 -10 -4 -10 -9 0 -14 38 -1 44
14 3 8 -2 19 -10 25 -11 10 -14 9 -14 -9z"/>
<path d="M4810 3535 c0 -8 4 -15 10 -15 5 0 7 7 4 15 -4 8 -8 15 -10 15 -2 0
-4 -7 -4 -15z"/>
<path d="M6480 3466 c0 -2 7 -6 15 -10 8 -3 15 -1 15 4 0 6 -7 10 -15 10 -8 0
-15 -2 -15 -4z"/>
<path d="M7040 3415 c-7 -9 -11 -18 -8 -20 3 -3 11 1 18 10 7 9 11 18 8 20 -3
3 -11 -1 -18 -10z"/>
<path d="M5600 3401 c0 -6 4 -13 10 -16 6 -3 7 1 4 9 -7 18 -14 21 -14 7z"/>
<path d="M5810 3362 c0 -13 39 -46 46 -39 3 3 3 10 -1 16 -9 15 -45 33 -45 23z"/>
<path d="M6888 3360 c-13 -32 -16 -60 -7 -60 14 0 21 25 17 52 -3 16 -6 19
-10 8z"/>
<path d="M7017 3330 c-19 -27 -22 -50 -7 -50 13 0 32 38 28 58 -3 14 -6 13
-21 -8z"/>
<path d="M6789 3340 c0 -3 -2 -14 -4 -24 -6 -30 7 -42 17 -16 5 14 5 27 -2 34
-5 5 -10 8 -11 6z"/>
<path d="M6233 3315 c0 -10 6 -14 14 -10 8 3 20 5 26 6 7 0 3 4 -8 9 -29 12
-32 12 -32 -5z"/>
<path d="M5870 3308 c0 -9 7 -21 15 -28 8 -7 12 -16 10 -21 -10 -15 49 -37 83
-32 42 7 36 25 -11 36 -20 5 -37 13 -37 18 0 5 -5 9 -12 9 -6 0 -20 7 -30 17
-16 14 -18 14 -18 1z"/>
<path d="M5950 3305 c0 -10 10 -15 33 -15 l32 1 -25 14 c-32 18 -40 18 -40 0z"/>
<path d="M6746 3305 c4 -8 8 -15 10 -15 2 0 4 7 4 15 0 8 -4 15 -10 15 -5 0
-7 -7 -4 -15z"/>
<path d="M5710 3251 c0 -12 61 -43 69 -35 7 7 -40 43 -56 44 -7 0 -13 -4 -13
-9z"/>
<path d="M6770 3251 c0 -9 24 -21 42 -21 6 0 6 6 -2 15 -14 16 -40 20 -40 6z"/>
<path d="M6126 3216 c3 -9 11 -16 16 -16 13 0 5 23 -10 28 -7 2 -10 -2 -6 -12z"/>
<path d="M6835 3220 c3 -5 8 -10 11 -10 2 0 4 5 4 10 0 6 -5 10 -11 10 -5 0
-7 -4 -4 -10z"/>
<path d="M7126 2381 c-4 -7 -5 -15 -2 -18 9 -9 19 4 14 18 -4 11 -6 11 -12 0z"/>
<path d="M7132 2321 c-11 -7 -11 -9 1 -14 16 -6 27 0 27 15 0 10 -11 10 -28
-1z"/>
<path d="M6785 1461 c-2 -5 4 -11 15 -14 11 -3 20 -2 20 3 0 12 -28 21 -35 11z"/>
<path d="M6464 1394 l-29 -23 31 -1 c16 0 38 6 47 13 16 11 16 13 -1 24 -16 9
-24 7 -48 -13z"/>
<path d="M6995 1300 c4 -6 11 -8 16 -5 14 9 11 15 -7 15 -8 0 -12 -5 -9 -10z"/>
<path d="M6860 1160 c0 -5 5 -10 10 -10 6 0 10 5 10 10 0 6 -4 10 -10 10 -5 0
-10 -4 -10 -10z"/>
</g>
</svg>
